M48
; DRILL file {KiCad 8.0.8} date 2025-01-25T14:39:58+0530
; FORMAT={-:-/ absolute / inch / decimal}
; #@! TF.CreationDate,2025-01-25T14:39:58+05:30
; #@! TF.GenerationSoftware,Kicad,Pcbnew,8.0.8
; #@! TF.FileFunction,Plated,1,2,PTH
FMAT,2
INCH
; #@! TA.AperFunction,Plated,PTH,ComponentDrill
T1C0.0276
; #@! TA.AperFunction,Plated,PTH,ComponentDrill
T2C0.0354
; #@! TA.AperFunction,Plated,PTH,ComponentDrill
T3C0.0433
; #@! TA.AperFunction,Plated,PTH,ComponentDrill
T4C0.0472
; #@! TA.AperFunction,Plated,PTH,ComponentDrill
T5C0.0598
%
G90
G05
T1
X7.4213Y-2.9118
X7.4213Y-3.1118
X7.5453Y-2.9118
X7.5453Y-3.1118
T2
X7.5197Y-3.248
X7.5197Y-3.348
T3
X7.8906Y-2.2835
X7.8906Y-2.4606
X7.8937Y-2.6378
X7.8937Y-2.815
X8.2906Y-2.2835
X8.2906Y-2.4606
X8.2937Y-2.6378
X8.2937Y-2.815
T4
X7.9724Y-3.248
X8.1693Y-3.248
T5
X7.0276Y-2.6346
X7.0276Y-2.8346
X7.0276Y-3.0346
X7.5Y-2.2213
X7.5Y-2.4213
X7.5Y-2.6213
M30
