%TF.GenerationSoftware,KiCad,Pcbnew,8.0.8*%
%TF.CreationDate,2025-01-25T14:39:54+05:30*%
%TF.ProjectId,AC to DC conveter,41432074-6f20-4444-9320-636f6e766574,rev?*%
%TF.SameCoordinates,Original*%
%TF.FileFunction,Copper,L2,Bot*%
%TF.FilePolarity,Positive*%
%FSLAX46Y46*%
G04 Gerber Fmt 4.6, Leading zero omitted, Abs format (unit mm)*
G04 Created by KiCad (PCBNEW 8.0.8) date 2025-01-25 14:39:54*
%MOMM*%
%LPD*%
G01*
G04 APERTURE LIST*
%ADD10C,0.300000*%
%TA.AperFunction,NonConductor*%
%ADD11C,0.300000*%
%TD*%
%TA.AperFunction,ComponentPad*%
%ADD12C,1.400000*%
%TD*%
%TA.AperFunction,ComponentPad*%
%ADD13O,1.400000X1.400000*%
%TD*%
%TA.AperFunction,ComponentPad*%
%ADD14R,3.000000X3.000000*%
%TD*%
%TA.AperFunction,ComponentPad*%
%ADD15C,3.000000*%
%TD*%
%TA.AperFunction,ComponentPad*%
%ADD16R,1.800000X1.800000*%
%TD*%
%TA.AperFunction,ComponentPad*%
%ADD17C,1.800000*%
%TD*%
%TA.AperFunction,ComponentPad*%
%ADD18R,2.200000X2.200000*%
%TD*%
%TA.AperFunction,ComponentPad*%
%ADD19O,2.200000X2.200000*%
%TD*%
%TA.AperFunction,ComponentPad*%
%ADD20R,2.400000X2.400000*%
%TD*%
%TA.AperFunction,ComponentPad*%
%ADD21C,2.400000*%
%TD*%
%TA.AperFunction,Conductor*%
%ADD22C,0.200000*%
%TD*%
G04 APERTURE END LIST*
D10*
D11*
X175054510Y-85800828D02*
X175054510Y-84300828D01*
X175054510Y-84300828D02*
X175411653Y-84300828D01*
X175411653Y-84300828D02*
X175625939Y-84372257D01*
X175625939Y-84372257D02*
X175768796Y-84515114D01*
X175768796Y-84515114D02*
X175840225Y-84657971D01*
X175840225Y-84657971D02*
X175911653Y-84943685D01*
X175911653Y-84943685D02*
X175911653Y-85157971D01*
X175911653Y-85157971D02*
X175840225Y-85443685D01*
X175840225Y-85443685D02*
X175768796Y-85586542D01*
X175768796Y-85586542D02*
X175625939Y-85729400D01*
X175625939Y-85729400D02*
X175411653Y-85800828D01*
X175411653Y-85800828D02*
X175054510Y-85800828D01*
X177411653Y-85657971D02*
X177340225Y-85729400D01*
X177340225Y-85729400D02*
X177125939Y-85800828D01*
X177125939Y-85800828D02*
X176983082Y-85800828D01*
X176983082Y-85800828D02*
X176768796Y-85729400D01*
X176768796Y-85729400D02*
X176625939Y-85586542D01*
X176625939Y-85586542D02*
X176554510Y-85443685D01*
X176554510Y-85443685D02*
X176483082Y-85157971D01*
X176483082Y-85157971D02*
X176483082Y-84943685D01*
X176483082Y-84943685D02*
X176554510Y-84657971D01*
X176554510Y-84657971D02*
X176625939Y-84515114D01*
X176625939Y-84515114D02*
X176768796Y-84372257D01*
X176768796Y-84372257D02*
X176983082Y-84300828D01*
X176983082Y-84300828D02*
X177125939Y-84300828D01*
X177125939Y-84300828D02*
X177340225Y-84372257D01*
X177340225Y-84372257D02*
X177411653Y-84443685D01*
X179483082Y-84300828D02*
X179768796Y-84300828D01*
X179768796Y-84300828D02*
X179911653Y-84372257D01*
X179911653Y-84372257D02*
X180054510Y-84515114D01*
X180054510Y-84515114D02*
X180125939Y-84800828D01*
X180125939Y-84800828D02*
X180125939Y-85300828D01*
X180125939Y-85300828D02*
X180054510Y-85586542D01*
X180054510Y-85586542D02*
X179911653Y-85729400D01*
X179911653Y-85729400D02*
X179768796Y-85800828D01*
X179768796Y-85800828D02*
X179483082Y-85800828D01*
X179483082Y-85800828D02*
X179340225Y-85729400D01*
X179340225Y-85729400D02*
X179197367Y-85586542D01*
X179197367Y-85586542D02*
X179125939Y-85300828D01*
X179125939Y-85300828D02*
X179125939Y-84800828D01*
X179125939Y-84800828D02*
X179197367Y-84515114D01*
X179197367Y-84515114D02*
X179340225Y-84372257D01*
X179340225Y-84372257D02*
X179483082Y-84300828D01*
X180768796Y-84300828D02*
X180768796Y-85515114D01*
X180768796Y-85515114D02*
X180840225Y-85657971D01*
X180840225Y-85657971D02*
X180911654Y-85729400D01*
X180911654Y-85729400D02*
X181054511Y-85800828D01*
X181054511Y-85800828D02*
X181340225Y-85800828D01*
X181340225Y-85800828D02*
X181483082Y-85729400D01*
X181483082Y-85729400D02*
X181554511Y-85657971D01*
X181554511Y-85657971D02*
X181625939Y-85515114D01*
X181625939Y-85515114D02*
X181625939Y-84300828D01*
X182125940Y-84300828D02*
X182983083Y-84300828D01*
X182554511Y-85800828D02*
X182554511Y-84300828D01*
D10*
D11*
X175483082Y-54372257D02*
X176197368Y-54372257D01*
X175340225Y-54800828D02*
X175840225Y-53300828D01*
X175840225Y-53300828D02*
X176340225Y-54800828D01*
X177697367Y-54657971D02*
X177625939Y-54729400D01*
X177625939Y-54729400D02*
X177411653Y-54800828D01*
X177411653Y-54800828D02*
X177268796Y-54800828D01*
X177268796Y-54800828D02*
X177054510Y-54729400D01*
X177054510Y-54729400D02*
X176911653Y-54586542D01*
X176911653Y-54586542D02*
X176840224Y-54443685D01*
X176840224Y-54443685D02*
X176768796Y-54157971D01*
X176768796Y-54157971D02*
X176768796Y-53943685D01*
X176768796Y-53943685D02*
X176840224Y-53657971D01*
X176840224Y-53657971D02*
X176911653Y-53515114D01*
X176911653Y-53515114D02*
X177054510Y-53372257D01*
X177054510Y-53372257D02*
X177268796Y-53300828D01*
X177268796Y-53300828D02*
X177411653Y-53300828D01*
X177411653Y-53300828D02*
X177625939Y-53372257D01*
X177625939Y-53372257D02*
X177697367Y-53443685D01*
X179483081Y-54800828D02*
X179483081Y-53300828D01*
X180197367Y-54800828D02*
X180197367Y-53300828D01*
X180197367Y-53300828D02*
X181054510Y-54800828D01*
X181054510Y-54800828D02*
X181054510Y-53300828D01*
D10*
D11*
X177483082Y-50372257D02*
X178197368Y-50372257D01*
X177340225Y-50800828D02*
X177840225Y-49300828D01*
X177840225Y-49300828D02*
X178340225Y-50800828D01*
X179697367Y-50657971D02*
X179625939Y-50729400D01*
X179625939Y-50729400D02*
X179411653Y-50800828D01*
X179411653Y-50800828D02*
X179268796Y-50800828D01*
X179268796Y-50800828D02*
X179054510Y-50729400D01*
X179054510Y-50729400D02*
X178911653Y-50586542D01*
X178911653Y-50586542D02*
X178840224Y-50443685D01*
X178840224Y-50443685D02*
X178768796Y-50157971D01*
X178768796Y-50157971D02*
X178768796Y-49943685D01*
X178768796Y-49943685D02*
X178840224Y-49657971D01*
X178840224Y-49657971D02*
X178911653Y-49515114D01*
X178911653Y-49515114D02*
X179054510Y-49372257D01*
X179054510Y-49372257D02*
X179268796Y-49300828D01*
X179268796Y-49300828D02*
X179411653Y-49300828D01*
X179411653Y-49300828D02*
X179625939Y-49372257D01*
X179625939Y-49372257D02*
X179697367Y-49443685D01*
X181268796Y-49300828D02*
X182125939Y-49300828D01*
X181697367Y-50800828D02*
X181697367Y-49300828D01*
X182911653Y-49300828D02*
X183197367Y-49300828D01*
X183197367Y-49300828D02*
X183340224Y-49372257D01*
X183340224Y-49372257D02*
X183483081Y-49515114D01*
X183483081Y-49515114D02*
X183554510Y-49800828D01*
X183554510Y-49800828D02*
X183554510Y-50300828D01*
X183554510Y-50300828D02*
X183483081Y-50586542D01*
X183483081Y-50586542D02*
X183340224Y-50729400D01*
X183340224Y-50729400D02*
X183197367Y-50800828D01*
X183197367Y-50800828D02*
X182911653Y-50800828D01*
X182911653Y-50800828D02*
X182768796Y-50729400D01*
X182768796Y-50729400D02*
X182625938Y-50586542D01*
X182625938Y-50586542D02*
X182554510Y-50300828D01*
X182554510Y-50300828D02*
X182554510Y-49800828D01*
X182554510Y-49800828D02*
X182625938Y-49515114D01*
X182625938Y-49515114D02*
X182768796Y-49372257D01*
X182768796Y-49372257D02*
X182911653Y-49300828D01*
X185340224Y-50800828D02*
X185340224Y-49300828D01*
X185340224Y-49300828D02*
X185697367Y-49300828D01*
X185697367Y-49300828D02*
X185911653Y-49372257D01*
X185911653Y-49372257D02*
X186054510Y-49515114D01*
X186054510Y-49515114D02*
X186125939Y-49657971D01*
X186125939Y-49657971D02*
X186197367Y-49943685D01*
X186197367Y-49943685D02*
X186197367Y-50157971D01*
X186197367Y-50157971D02*
X186125939Y-50443685D01*
X186125939Y-50443685D02*
X186054510Y-50586542D01*
X186054510Y-50586542D02*
X185911653Y-50729400D01*
X185911653Y-50729400D02*
X185697367Y-50800828D01*
X185697367Y-50800828D02*
X185340224Y-50800828D01*
X187697367Y-50657971D02*
X187625939Y-50729400D01*
X187625939Y-50729400D02*
X187411653Y-50800828D01*
X187411653Y-50800828D02*
X187268796Y-50800828D01*
X187268796Y-50800828D02*
X187054510Y-50729400D01*
X187054510Y-50729400D02*
X186911653Y-50586542D01*
X186911653Y-50586542D02*
X186840224Y-50443685D01*
X186840224Y-50443685D02*
X186768796Y-50157971D01*
X186768796Y-50157971D02*
X186768796Y-49943685D01*
X186768796Y-49943685D02*
X186840224Y-49657971D01*
X186840224Y-49657971D02*
X186911653Y-49515114D01*
X186911653Y-49515114D02*
X187054510Y-49372257D01*
X187054510Y-49372257D02*
X187268796Y-49300828D01*
X187268796Y-49300828D02*
X187411653Y-49300828D01*
X187411653Y-49300828D02*
X187625939Y-49372257D01*
X187625939Y-49372257D02*
X187697367Y-49443685D01*
X190340224Y-50657971D02*
X190268796Y-50729400D01*
X190268796Y-50729400D02*
X190054510Y-50800828D01*
X190054510Y-50800828D02*
X189911653Y-50800828D01*
X189911653Y-50800828D02*
X189697367Y-50729400D01*
X189697367Y-50729400D02*
X189554510Y-50586542D01*
X189554510Y-50586542D02*
X189483081Y-50443685D01*
X189483081Y-50443685D02*
X189411653Y-50157971D01*
X189411653Y-50157971D02*
X189411653Y-49943685D01*
X189411653Y-49943685D02*
X189483081Y-49657971D01*
X189483081Y-49657971D02*
X189554510Y-49515114D01*
X189554510Y-49515114D02*
X189697367Y-49372257D01*
X189697367Y-49372257D02*
X189911653Y-49300828D01*
X189911653Y-49300828D02*
X190054510Y-49300828D01*
X190054510Y-49300828D02*
X190268796Y-49372257D01*
X190268796Y-49372257D02*
X190340224Y-49443685D01*
X191268796Y-49300828D02*
X191554510Y-49300828D01*
X191554510Y-49300828D02*
X191697367Y-49372257D01*
X191697367Y-49372257D02*
X191840224Y-49515114D01*
X191840224Y-49515114D02*
X191911653Y-49800828D01*
X191911653Y-49800828D02*
X191911653Y-50300828D01*
X191911653Y-50300828D02*
X191840224Y-50586542D01*
X191840224Y-50586542D02*
X191697367Y-50729400D01*
X191697367Y-50729400D02*
X191554510Y-50800828D01*
X191554510Y-50800828D02*
X191268796Y-50800828D01*
X191268796Y-50800828D02*
X191125939Y-50729400D01*
X191125939Y-50729400D02*
X190983081Y-50586542D01*
X190983081Y-50586542D02*
X190911653Y-50300828D01*
X190911653Y-50300828D02*
X190911653Y-49800828D01*
X190911653Y-49800828D02*
X190983081Y-49515114D01*
X190983081Y-49515114D02*
X191125939Y-49372257D01*
X191125939Y-49372257D02*
X191268796Y-49300828D01*
X192554510Y-50800828D02*
X192554510Y-49300828D01*
X192554510Y-49300828D02*
X193411653Y-50800828D01*
X193411653Y-50800828D02*
X193411653Y-49300828D01*
D12*
%TO.P,R2,1*%
%TO.N,/+ve*%
X191650000Y-79040000D03*
D13*
%TO.P,R2,2*%
%TO.N,Net-(D5-A)*%
X191650000Y-73960000D03*
%TD*%
D12*
%TO.P,R1,1*%
%TO.N,/+ve*%
X188500000Y-79040000D03*
D13*
%TO.P,R1,2*%
%TO.N,GND*%
X188500000Y-73960000D03*
%TD*%
D14*
%TO.P,J2,1,Pin_1*%
%TO.N,Net-(D3-A)*%
X178500000Y-77080000D03*
D15*
%TO.P,J2,2,Pin_2*%
%TO.N,Net-(D1-A)*%
X178500000Y-72000000D03*
%TO.P,J2,3*%
%TO.N,N/C*%
X178500000Y-66920000D03*
%TD*%
D14*
%TO.P,J1,1,Pin_1*%
%TO.N,/+ve*%
X190500000Y-66580000D03*
D15*
%TO.P,J1,2,Pin_2*%
%TO.N,GND*%
X190500000Y-61500000D03*
%TO.P,J1,3*%
%TO.N,N/C*%
X190500000Y-56420000D03*
%TD*%
D16*
%TO.P,D5,1,K*%
%TO.N,GND*%
X191000000Y-82500000D03*
D17*
%TO.P,D5,2,A*%
%TO.N,Net-(D5-A)*%
X191000000Y-85040000D03*
%TD*%
D18*
%TO.P,D4,1,K*%
%TO.N,Net-(D3-A)*%
X200500000Y-71500000D03*
D19*
%TO.P,D4,2,A*%
%TO.N,GND*%
X210660000Y-71500000D03*
%TD*%
D18*
%TO.P,D3,1,K*%
%TO.N,/+ve*%
X200500000Y-67000000D03*
D19*
%TO.P,D3,2,A*%
%TO.N,Net-(D3-A)*%
X210660000Y-67000000D03*
%TD*%
D18*
%TO.P,D2,1,K*%
%TO.N,Net-(D1-A)*%
X200420000Y-62500000D03*
D19*
%TO.P,D2,2,A*%
%TO.N,GND*%
X210580000Y-62500000D03*
%TD*%
D18*
%TO.P,D1,1,K*%
%TO.N,/+ve*%
X200420000Y-58000000D03*
D19*
%TO.P,D1,2,A*%
%TO.N,Net-(D1-A)*%
X210580000Y-58000000D03*
%TD*%
D20*
%TO.P,C1,1*%
%TO.N,/+ve*%
X202500000Y-82500000D03*
D21*
%TO.P,C1,2*%
%TO.N,GND*%
X207500000Y-82500000D03*
%TD*%
D22*
%TO.N,GND*%
X203500000Y-86500000D02*
X207500000Y-82500000D01*
X190762943Y-86500000D02*
X203500000Y-86500000D01*
X189800000Y-85537057D02*
X190762943Y-86500000D01*
X189800000Y-84542943D02*
X189800000Y-85537057D01*
X191000000Y-83342943D02*
X189800000Y-84542943D01*
X191000000Y-82500000D02*
X191000000Y-83342943D01*
%TD*%
%TA.AperFunction,Conductor*%
%TO.N,GND*%
G36*
X214943039Y-48019685D02*
G01*
X214988794Y-48072489D01*
X215000000Y-48124000D01*
X215000000Y-91376000D01*
X214980315Y-91443039D01*
X214927511Y-91488794D01*
X214876000Y-91500000D01*
X173124000Y-91500000D01*
X173056961Y-91480315D01*
X173011206Y-91427511D01*
X173000000Y-91376000D01*
X173000000Y-86458053D01*
X174399010Y-86458053D01*
X183638583Y-86458053D01*
X183638583Y-85039993D01*
X189594700Y-85039993D01*
X189594700Y-85040006D01*
X189613864Y-85271297D01*
X189613866Y-85271308D01*
X189670842Y-85496300D01*
X189764075Y-85708848D01*
X189891016Y-85903147D01*
X189891019Y-85903151D01*
X189891021Y-85903153D01*
X190048216Y-86073913D01*
X190048219Y-86073915D01*
X190048222Y-86073918D01*
X190231365Y-86216464D01*
X190231371Y-86216468D01*
X190231374Y-86216470D01*
X190435497Y-86326936D01*
X190549487Y-86366068D01*
X190655015Y-86402297D01*
X190655017Y-86402297D01*
X190655019Y-86402298D01*
X190883951Y-86440500D01*
X190883952Y-86440500D01*
X191116048Y-86440500D01*
X191116049Y-86440500D01*
X191344981Y-86402298D01*
X191564503Y-86326936D01*
X191768626Y-86216470D01*
X191951784Y-86073913D01*
X192108979Y-85903153D01*
X192235924Y-85708849D01*
X192329157Y-85496300D01*
X192386134Y-85271305D01*
X192405300Y-85040000D01*
X192405300Y-85039993D01*
X192386135Y-84808702D01*
X192386133Y-84808691D01*
X192329157Y-84583699D01*
X192235924Y-84371151D01*
X192108981Y-84176849D01*
X192013832Y-84073489D01*
X191982910Y-84010835D01*
X191990770Y-83941409D01*
X192034918Y-83887253D01*
X192061730Y-83873325D01*
X192142084Y-83843355D01*
X192142093Y-83843350D01*
X192257187Y-83757190D01*
X192257190Y-83757187D01*
X192343350Y-83642093D01*
X192343354Y-83642086D01*
X192393596Y-83507379D01*
X192393598Y-83507372D01*
X192399999Y-83447844D01*
X192400000Y-83447827D01*
X192400000Y-82750000D01*
X191375278Y-82750000D01*
X191419333Y-82673694D01*
X191450000Y-82559244D01*
X191450000Y-82440756D01*
X191419333Y-82326306D01*
X191375278Y-82250000D01*
X192400000Y-82250000D01*
X192400000Y-81552172D01*
X192399999Y-81552155D01*
X192393598Y-81492627D01*
X192393596Y-81492620D01*
X192343354Y-81357913D01*
X192343350Y-81357906D01*
X192264169Y-81252135D01*
X200799500Y-81252135D01*
X200799500Y-83747870D01*
X200799501Y-83747876D01*
X200805908Y-83807483D01*
X200856202Y-83942328D01*
X200856206Y-83942335D01*
X200942452Y-84057544D01*
X200942455Y-84057547D01*
X201057664Y-84143793D01*
X201057671Y-84143797D01*
X201192517Y-84194091D01*
X201192516Y-84194091D01*
X201199444Y-84194835D01*
X201252127Y-84200500D01*
X203747872Y-84200499D01*
X203807483Y-84194091D01*
X203942331Y-84143796D01*
X204057546Y-84057546D01*
X204143796Y-83942331D01*
X204194091Y-83807483D01*
X204200500Y-83747873D01*
X204200499Y-82499995D01*
X205795233Y-82499995D01*
X205795233Y-82500004D01*
X205814273Y-82754079D01*
X205870968Y-83002477D01*
X205870973Y-83002494D01*
X205964058Y-83239671D01*
X205964057Y-83239671D01*
X206091457Y-83460332D01*
X206133452Y-83512993D01*
X206935387Y-82711058D01*
X206940889Y-82731591D01*
X207019881Y-82868408D01*
X207131592Y-82980119D01*
X207268409Y-83059111D01*
X207288940Y-83064612D01*
X206486813Y-83866737D01*
X206647623Y-83976375D01*
X206647624Y-83976376D01*
X206877176Y-84086921D01*
X206877174Y-84086921D01*
X207120652Y-84162024D01*
X207120658Y-84162026D01*
X207372595Y-84199999D01*
X207372604Y-84200000D01*
X207627396Y-84200000D01*
X207627404Y-84199999D01*
X207879341Y-84162026D01*
X207879347Y-84162024D01*
X208122824Y-84086921D01*
X208352381Y-83976373D01*
X208513185Y-83866737D01*
X207711059Y-83064612D01*
X207731591Y-83059111D01*
X207868408Y-82980119D01*
X207980119Y-82868408D01*
X208059111Y-82731591D01*
X208064612Y-82711059D01*
X208866545Y-83512993D01*
X208908545Y-83460327D01*
X209035941Y-83239671D01*
X209129026Y-83002494D01*
X209129031Y-83002477D01*
X209185726Y-82754079D01*
X209204767Y-82500004D01*
X209204767Y-82499995D01*
X209185726Y-82245920D01*
X209129031Y-81997522D01*
X209129026Y-81997505D01*
X209035941Y-81760328D01*
X209035942Y-81760328D01*
X208908544Y-81539671D01*
X208866546Y-81487006D01*
X208064612Y-82288939D01*
X208059111Y-82268409D01*
X207980119Y-82131592D01*
X207868408Y-82019881D01*
X207731591Y-81940889D01*
X207711058Y-81935387D01*
X208513185Y-81133261D01*
X208352377Y-81023624D01*
X208352376Y-81023623D01*
X208122823Y-80913078D01*
X208122825Y-80913078D01*
X207879347Y-80837975D01*
X207879341Y-80837973D01*
X207627404Y-80800000D01*
X207372595Y-80800000D01*
X207120658Y-80837973D01*
X207120652Y-80837975D01*
X206877175Y-80913078D01*
X206647624Y-81023623D01*
X206647616Y-81023628D01*
X206486813Y-81133261D01*
X207288940Y-81935387D01*
X207268409Y-81940889D01*
X207131592Y-82019881D01*
X207019881Y-82131592D01*
X206940889Y-82268409D01*
X206935387Y-82288940D01*
X206133453Y-81487006D01*
X206091455Y-81539670D01*
X205964058Y-81760328D01*
X205870973Y-81997505D01*
X205870968Y-81997522D01*
X205814273Y-82245920D01*
X205795233Y-82499995D01*
X204200499Y-82499995D01*
X204200499Y-81252128D01*
X204194091Y-81192517D01*
X204159584Y-81100000D01*
X204143797Y-81057671D01*
X204143793Y-81057664D01*
X204057547Y-80942455D01*
X204057544Y-80942452D01*
X203942335Y-80856206D01*
X203942328Y-80856202D01*
X203807482Y-80805908D01*
X203807483Y-80805908D01*
X203747883Y-80799501D01*
X203747881Y-80799500D01*
X203747873Y-80799500D01*
X203747864Y-80799500D01*
X201252129Y-80799500D01*
X201252123Y-80799501D01*
X201192516Y-80805908D01*
X201057671Y-80856202D01*
X201057664Y-80856206D01*
X200942455Y-80942452D01*
X200942452Y-80942455D01*
X200856206Y-81057664D01*
X200856202Y-81057671D01*
X200805908Y-81192517D01*
X200799501Y-81252116D01*
X200799501Y-81252123D01*
X200799500Y-81252135D01*
X192264169Y-81252135D01*
X192257190Y-81242812D01*
X192257187Y-81242809D01*
X192142093Y-81156649D01*
X192142086Y-81156645D01*
X192007379Y-81106403D01*
X192007372Y-81106401D01*
X191947844Y-81100000D01*
X191250000Y-81100000D01*
X191250000Y-82124722D01*
X191173694Y-82080667D01*
X191059244Y-82050000D01*
X190940756Y-82050000D01*
X190826306Y-82080667D01*
X190750000Y-82124722D01*
X190750000Y-81100000D01*
X190052155Y-81100000D01*
X189992627Y-81106401D01*
X189992620Y-81106403D01*
X189857913Y-81156645D01*
X189857906Y-81156649D01*
X189742812Y-81242809D01*
X189742809Y-81242812D01*
X189656649Y-81357906D01*
X189656645Y-81357913D01*
X189606403Y-81492620D01*
X189606401Y-81492627D01*
X189600000Y-81552155D01*
X189600000Y-82250000D01*
X190624722Y-82250000D01*
X190580667Y-82326306D01*
X190550000Y-82440756D01*
X190550000Y-82559244D01*
X190580667Y-82673694D01*
X190624722Y-82750000D01*
X189600000Y-82750000D01*
X189600000Y-83447844D01*
X189606401Y-83507372D01*
X189606403Y-83507379D01*
X189656645Y-83642086D01*
X189656649Y-83642093D01*
X189742809Y-83757187D01*
X189742812Y-83757190D01*
X189857906Y-83843350D01*
X189857913Y-83843354D01*
X189938270Y-83873325D01*
X189994204Y-83915196D01*
X190018621Y-83980660D01*
X190003770Y-84048933D01*
X189986168Y-84073489D01*
X189891021Y-84176847D01*
X189891019Y-84176848D01*
X189891016Y-84176853D01*
X189764075Y-84371151D01*
X189670842Y-84583699D01*
X189613866Y-84808691D01*
X189613864Y-84808702D01*
X189594700Y-85039993D01*
X183638583Y-85039993D01*
X183638583Y-83643603D01*
X174399010Y-83643603D01*
X174399010Y-86458053D01*
X173000000Y-86458053D01*
X173000000Y-75532135D01*
X176499500Y-75532135D01*
X176499500Y-78627870D01*
X176499501Y-78627876D01*
X176505908Y-78687483D01*
X176556202Y-78822328D01*
X176556206Y-78822335D01*
X176642452Y-78937544D01*
X176642455Y-78937547D01*
X176757664Y-79023793D01*
X176757671Y-79023797D01*
X176892517Y-79074091D01*
X176892516Y-79074091D01*
X176899444Y-79074835D01*
X176952127Y-79080500D01*
X180047872Y-79080499D01*
X180107483Y-79074091D01*
X180198888Y-79039999D01*
X187294357Y-79039999D01*
X187294357Y-79040000D01*
X187314884Y-79261535D01*
X187314885Y-79261537D01*
X187375769Y-79475523D01*
X187375775Y-79475538D01*
X187474938Y-79674683D01*
X187474943Y-79674691D01*
X187609020Y-79852238D01*
X187773437Y-80002123D01*
X187773439Y-80002125D01*
X187962595Y-80119245D01*
X187962596Y-80119245D01*
X187962599Y-80119247D01*
X188170060Y-80199618D01*
X188388757Y-80240500D01*
X188388759Y-80240500D01*
X188611241Y-80240500D01*
X188611243Y-80240500D01*
X188829940Y-80199618D01*
X189037401Y-80119247D01*
X189226562Y-80002124D01*
X189390981Y-79852236D01*
X189525058Y-79674689D01*
X189624229Y-79475528D01*
X189685115Y-79261536D01*
X189705643Y-79040000D01*
X189705643Y-79039999D01*
X190444357Y-79039999D01*
X190444357Y-79040000D01*
X190464884Y-79261535D01*
X190464885Y-79261537D01*
X190525769Y-79475523D01*
X190525775Y-79475538D01*
X190624938Y-79674683D01*
X190624943Y-79674691D01*
X190759020Y-79852238D01*
X190923437Y-80002123D01*
X190923439Y-80002125D01*
X191112595Y-80119245D01*
X191112596Y-80119245D01*
X191112599Y-80119247D01*
X191320060Y-80199618D01*
X191538757Y-80240500D01*
X191538759Y-80240500D01*
X191761241Y-80240500D01*
X191761243Y-80240500D01*
X191979940Y-80199618D01*
X192187401Y-80119247D01*
X192376562Y-80002124D01*
X192540981Y-79852236D01*
X192675058Y-79674689D01*
X192774229Y-79475528D01*
X192835115Y-79261536D01*
X192855643Y-79040000D01*
X192846149Y-78937547D01*
X192835115Y-78818464D01*
X192835114Y-78818462D01*
X192797847Y-78687483D01*
X192774229Y-78604472D01*
X192774224Y-78604461D01*
X192675061Y-78405316D01*
X192675056Y-78405308D01*
X192540979Y-78227761D01*
X192376562Y-78077876D01*
X192376560Y-78077874D01*
X192187404Y-77960754D01*
X192187398Y-77960752D01*
X191979940Y-77880382D01*
X191761243Y-77839500D01*
X191538757Y-77839500D01*
X191320060Y-77880382D01*
X191188864Y-77931207D01*
X191112601Y-77960752D01*
X191112595Y-77960754D01*
X190923439Y-78077874D01*
X190923437Y-78077876D01*
X190759020Y-78227761D01*
X190624943Y-78405308D01*
X190624938Y-78405316D01*
X190525775Y-78604461D01*
X190525769Y-78604476D01*
X190464885Y-78818462D01*
X190464884Y-78818464D01*
X190444357Y-79039999D01*
X189705643Y-79039999D01*
X189696149Y-78937547D01*
X189685115Y-78818464D01*
X189685114Y-78818462D01*
X189647847Y-78687483D01*
X189624229Y-78604472D01*
X189624224Y-78604461D01*
X189525061Y-78405316D01*
X189525056Y-78405308D01*
X189390979Y-78227761D01*
X189226562Y-78077876D01*
X189226560Y-78077874D01*
X189037404Y-77960754D01*
X189037398Y-77960752D01*
X188829940Y-77880382D01*
X188611243Y-77839500D01*
X188388757Y-77839500D01*
X188170060Y-77880382D01*
X188038864Y-77931207D01*
X187962601Y-77960752D01*
X187962595Y-77960754D01*
X187773439Y-78077874D01*
X187773437Y-78077876D01*
X187609020Y-78227761D01*
X187474943Y-78405308D01*
X187474938Y-78405316D01*
X187375775Y-78604461D01*
X187375769Y-78604476D01*
X187314885Y-78818462D01*
X187314884Y-78818464D01*
X187294357Y-79039999D01*
X180198888Y-79039999D01*
X180242331Y-79023796D01*
X180357546Y-78937546D01*
X180443796Y-78822331D01*
X180494091Y-78687483D01*
X180500500Y-78627873D01*
X180500499Y-75532128D01*
X180494091Y-75472517D01*
X180443796Y-75337669D01*
X180443795Y-75337668D01*
X180443793Y-75337664D01*
X180357547Y-75222455D01*
X180357544Y-75222452D01*
X180242335Y-75136206D01*
X180242328Y-75136202D01*
X180107482Y-75085908D01*
X180107483Y-75085908D01*
X180047883Y-75079501D01*
X180047881Y-75079500D01*
X180047873Y-75079500D01*
X180047864Y-75079500D01*
X176952129Y-75079500D01*
X176952123Y-75079501D01*
X176892516Y-75085908D01*
X176757671Y-75136202D01*
X176757664Y-75136206D01*
X176642455Y-75222452D01*
X176642452Y-75222455D01*
X176556206Y-75337664D01*
X176556202Y-75337671D01*
X176505908Y-75472517D01*
X176499501Y-75532116D01*
X176499501Y-75532123D01*
X176499500Y-75532135D01*
X173000000Y-75532135D01*
X173000000Y-74210000D01*
X187323505Y-74210000D01*
X187376239Y-74395349D01*
X187475368Y-74594425D01*
X187609391Y-74771900D01*
X187773738Y-74921721D01*
X187962820Y-75038797D01*
X187962822Y-75038798D01*
X188170195Y-75119135D01*
X188250000Y-75134052D01*
X188750000Y-75134052D01*
X188829804Y-75119135D01*
X189037177Y-75038798D01*
X189037179Y-75038797D01*
X189226261Y-74921721D01*
X189390608Y-74771900D01*
X189524631Y-74594425D01*
X189623760Y-74395349D01*
X189676495Y-74210000D01*
X188750000Y-74210000D01*
X188750000Y-75134052D01*
X188250000Y-75134052D01*
X188250000Y-74210000D01*
X187323505Y-74210000D01*
X173000000Y-74210000D01*
X173000000Y-71999998D01*
X176494390Y-71999998D01*
X176494390Y-72000001D01*
X176514804Y-72285433D01*
X176575628Y-72565037D01*
X176575630Y-72565043D01*
X176575631Y-72565046D01*
X176663407Y-72800382D01*
X176675635Y-72833166D01*
X176812770Y-73084309D01*
X176812775Y-73084317D01*
X176984254Y-73313387D01*
X176984270Y-73313405D01*
X177186594Y-73515729D01*
X177186612Y-73515745D01*
X177415682Y-73687224D01*
X177415690Y-73687229D01*
X177666833Y-73824364D01*
X177666832Y-73824364D01*
X177666836Y-73824365D01*
X177666839Y-73824367D01*
X177934954Y-73924369D01*
X177934960Y-73924370D01*
X177934962Y-73924371D01*
X178214566Y-73985195D01*
X178214568Y-73985195D01*
X178214572Y-73985196D01*
X178468220Y-74003337D01*
X178499999Y-74005610D01*
X178500000Y-74005610D01*
X178500001Y-74005610D01*
X178528595Y-74003564D01*
X178785428Y-73985196D01*
X178901253Y-73960000D01*
X179065037Y-73924371D01*
X179065037Y-73924370D01*
X179065046Y-73924369D01*
X179093055Y-73913922D01*
X188150000Y-73913922D01*
X188150000Y-74006078D01*
X188173852Y-74095095D01*
X188219930Y-74174905D01*
X188285095Y-74240070D01*
X188364905Y-74286148D01*
X188453922Y-74310000D01*
X188546078Y-74310000D01*
X188635095Y-74286148D01*
X188714905Y-74240070D01*
X188780070Y-74174905D01*
X188826148Y-74095095D01*
X188850000Y-74006078D01*
X188850000Y-73959999D01*
X190444357Y-73959999D01*
X190444357Y-73960000D01*
X190464884Y-74181535D01*
X190464885Y-74181537D01*
X190525769Y-74395523D01*
X190525775Y-74395538D01*
X190624938Y-74594683D01*
X190624943Y-74594691D01*
X190759020Y-74772238D01*
X190923437Y-74922123D01*
X190923439Y-74922125D01*
X191112595Y-75039245D01*
X191112596Y-75039245D01*
X191112599Y-75039247D01*
X191320060Y-75119618D01*
X191538757Y-75160500D01*
X191538759Y-75160500D01*
X191761241Y-75160500D01*
X191761243Y-75160500D01*
X191979940Y-75119618D01*
X192187401Y-75039247D01*
X192376562Y-74922124D01*
X192540981Y-74772236D01*
X192675058Y-74594689D01*
X192774229Y-74395528D01*
X192835115Y-74181536D01*
X192855643Y-73960000D01*
X192835115Y-73738464D01*
X192774229Y-73524472D01*
X192774224Y-73524461D01*
X192675061Y-73325316D01*
X192675056Y-73325308D01*
X192540979Y-73147761D01*
X192376562Y-72997876D01*
X192376560Y-72997874D01*
X192187404Y-72880754D01*
X192187398Y-72880752D01*
X191979940Y-72800382D01*
X191761243Y-72759500D01*
X191538757Y-72759500D01*
X191320060Y-72800382D01*
X191211767Y-72842335D01*
X191112601Y-72880752D01*
X191112595Y-72880754D01*
X190923439Y-72997874D01*
X190923437Y-72997876D01*
X190759020Y-73147761D01*
X190624943Y-73325308D01*
X190624938Y-73325316D01*
X190525775Y-73524461D01*
X190525769Y-73524476D01*
X190464885Y-73738462D01*
X190464884Y-73738464D01*
X190444357Y-73959999D01*
X188850000Y-73959999D01*
X188850000Y-73913922D01*
X188826148Y-73824905D01*
X188780070Y-73745095D01*
X188744975Y-73710000D01*
X188750000Y-73710000D01*
X189676495Y-73710000D01*
X189623760Y-73524650D01*
X189524631Y-73325574D01*
X189390608Y-73148099D01*
X189226261Y-72998278D01*
X189037179Y-72881202D01*
X189037177Y-72881201D01*
X188829799Y-72800864D01*
X188750000Y-72785946D01*
X188750000Y-73710000D01*
X188744975Y-73710000D01*
X188714905Y-73679930D01*
X188635095Y-73633852D01*
X188546078Y-73610000D01*
X188453922Y-73610000D01*
X188364905Y-73633852D01*
X188285095Y-73679930D01*
X188219930Y-73745095D01*
X188173852Y-73824905D01*
X188150000Y-73913922D01*
X179093055Y-73913922D01*
X179333161Y-73824367D01*
X179542608Y-73710000D01*
X187323505Y-73710000D01*
X188250000Y-73710000D01*
X188250000Y-72785946D01*
X188170200Y-72800864D01*
X187962822Y-72881201D01*
X187962820Y-72881202D01*
X187773738Y-72998278D01*
X187609391Y-73148099D01*
X187475368Y-73325574D01*
X187376239Y-73524650D01*
X187323505Y-73710000D01*
X179542608Y-73710000D01*
X179584315Y-73687226D01*
X179813395Y-73515739D01*
X180015739Y-73313395D01*
X180187226Y-73084315D01*
X180324367Y-72833161D01*
X180424369Y-72565046D01*
X180485196Y-72285428D01*
X180505610Y-72000000D01*
X180485196Y-71714572D01*
X180454270Y-71572409D01*
X180424371Y-71434962D01*
X180424370Y-71434960D01*
X180424369Y-71434954D01*
X180324367Y-71166839D01*
X180235473Y-71004043D01*
X180187229Y-70915690D01*
X180187224Y-70915682D01*
X180015745Y-70686612D01*
X180015729Y-70686594D01*
X179813405Y-70484270D01*
X179813387Y-70484254D01*
X179636896Y-70352135D01*
X198899500Y-70352135D01*
X198899500Y-72647870D01*
X198899501Y-72647876D01*
X198905908Y-72707483D01*
X198956202Y-72842328D01*
X198956206Y-72842335D01*
X199042452Y-72957544D01*
X199042455Y-72957547D01*
X199157664Y-73043793D01*
X199157671Y-73043797D01*
X199292517Y-73094091D01*
X199292516Y-73094091D01*
X199299444Y-73094835D01*
X199352127Y-73100500D01*
X201647872Y-73100499D01*
X201707483Y-73094091D01*
X201842331Y-73043796D01*
X201957546Y-72957546D01*
X202043796Y-72842331D01*
X202094091Y-72707483D01*
X202100500Y-72647873D01*
X202100499Y-71249999D01*
X209074728Y-71249999D01*
X209074729Y-71250000D01*
X210169252Y-71250000D01*
X210147482Y-71287708D01*
X210110000Y-71427591D01*
X210110000Y-71572409D01*
X210147482Y-71712292D01*
X210169252Y-71750000D01*
X209074728Y-71750000D01*
X209074811Y-71751067D01*
X209133603Y-71995956D01*
X209229980Y-72228631D01*
X209361568Y-72443362D01*
X209361571Y-72443367D01*
X209525130Y-72634869D01*
X209716632Y-72798428D01*
X209716637Y-72798431D01*
X209931368Y-72930019D01*
X210164043Y-73026396D01*
X210408932Y-73085188D01*
X210410000Y-73085271D01*
X210410000Y-71990747D01*
X210447708Y-72012518D01*
X210587591Y-72050000D01*
X210732409Y-72050000D01*
X210872292Y-72012518D01*
X210910000Y-71990747D01*
X210910000Y-73085271D01*
X210911067Y-73085188D01*
X211155956Y-73026396D01*
X211388631Y-72930019D01*
X211603362Y-72798431D01*
X211603367Y-72798428D01*
X211794869Y-72634869D01*
X211958428Y-72443367D01*
X211958431Y-72443362D01*
X212090019Y-72228631D01*
X212186396Y-71995956D01*
X212245188Y-71751067D01*
X212245272Y-71750000D01*
X211150748Y-71750000D01*
X211172518Y-71712292D01*
X211210000Y-71572409D01*
X211210000Y-71427591D01*
X211172518Y-71287708D01*
X211150748Y-71250000D01*
X212245271Y-71250000D01*
X212245271Y-71249999D01*
X212245188Y-71248932D01*
X212186396Y-71004043D01*
X212090019Y-70771368D01*
X211958431Y-70556637D01*
X211958428Y-70556632D01*
X211794869Y-70365130D01*
X211603367Y-70201571D01*
X211603362Y-70201568D01*
X211388631Y-70069980D01*
X211155956Y-69973603D01*
X210911064Y-69914811D01*
X210910000Y-69914726D01*
X210910000Y-71009252D01*
X210872292Y-70987482D01*
X210732409Y-70950000D01*
X210587591Y-70950000D01*
X210447708Y-70987482D01*
X210410000Y-71009252D01*
X210410000Y-69914726D01*
X210408935Y-69914811D01*
X210164043Y-69973603D01*
X209931368Y-70069980D01*
X209716637Y-70201568D01*
X209716632Y-70201571D01*
X209525130Y-70365130D01*
X209361571Y-70556632D01*
X209361568Y-70556637D01*
X209229980Y-70771368D01*
X209133603Y-71004043D01*
X209074811Y-71248932D01*
X209074728Y-71249999D01*
X202100499Y-71249999D01*
X202100499Y-70352128D01*
X202094091Y-70292517D01*
X202060170Y-70201571D01*
X202043797Y-70157671D01*
X202043793Y-70157664D01*
X201957547Y-70042455D01*
X201957544Y-70042452D01*
X201842335Y-69956206D01*
X201842328Y-69956202D01*
X201707482Y-69905908D01*
X201707483Y-69905908D01*
X201647883Y-69899501D01*
X201647881Y-69899500D01*
X201647873Y-69899500D01*
X201647864Y-69899500D01*
X199352129Y-69899500D01*
X199352123Y-69899501D01*
X199292516Y-69905908D01*
X199157671Y-69956202D01*
X199157664Y-69956206D01*
X199042455Y-70042452D01*
X199042452Y-70042455D01*
X198956206Y-70157664D01*
X198956202Y-70157671D01*
X198905908Y-70292517D01*
X198899501Y-70352116D01*
X198899501Y-70352123D01*
X198899500Y-70352135D01*
X179636896Y-70352135D01*
X179584317Y-70312775D01*
X179584309Y-70312770D01*
X179333166Y-70175635D01*
X179333167Y-70175635D01*
X179225915Y-70135632D01*
X179065046Y-70075631D01*
X179065043Y-70075630D01*
X179065037Y-70075628D01*
X178785433Y-70014804D01*
X178500001Y-69994390D01*
X178499999Y-69994390D01*
X178214566Y-70014804D01*
X177934962Y-70075628D01*
X177666833Y-70175635D01*
X177415690Y-70312770D01*
X177415682Y-70312775D01*
X177186612Y-70484254D01*
X177186594Y-70484270D01*
X176984270Y-70686594D01*
X176984254Y-70686612D01*
X176812775Y-70915682D01*
X176812770Y-70915690D01*
X176675635Y-71166833D01*
X176575628Y-71434962D01*
X176514804Y-71714566D01*
X176494390Y-71999998D01*
X173000000Y-71999998D01*
X173000000Y-66919998D01*
X176494390Y-66919998D01*
X176494390Y-66920001D01*
X176514804Y-67205433D01*
X176575628Y-67485037D01*
X176675635Y-67753166D01*
X176812770Y-68004309D01*
X176812775Y-68004317D01*
X176984254Y-68233387D01*
X176984270Y-68233405D01*
X177186594Y-68435729D01*
X177186612Y-68435745D01*
X177415682Y-68607224D01*
X177415690Y-68607229D01*
X177666833Y-68744364D01*
X177666832Y-68744364D01*
X177666836Y-68744365D01*
X177666839Y-68744367D01*
X177934954Y-68844369D01*
X177934960Y-68844370D01*
X177934962Y-68844371D01*
X178214566Y-68905195D01*
X178214568Y-68905195D01*
X178214572Y-68905196D01*
X178468220Y-68923337D01*
X178499999Y-68925610D01*
X178500000Y-68925610D01*
X178500001Y-68925610D01*
X178528595Y-68923564D01*
X178785428Y-68905196D01*
X179065046Y-68844369D01*
X179333161Y-68744367D01*
X179584315Y-68607226D01*
X179813395Y-68435739D01*
X180015739Y-68233395D01*
X180187226Y-68004315D01*
X180324367Y-67753161D01*
X180424369Y-67485046D01*
X180485196Y-67205428D01*
X180505610Y-66920000D01*
X180485196Y-66634572D01*
X180424369Y-66354954D01*
X180324367Y-66086839D01*
X180307716Y-66056346D01*
X180187229Y-65835690D01*
X180187224Y-65835682D01*
X180015745Y-65606612D01*
X180015729Y-65606594D01*
X179813405Y-65404270D01*
X179813387Y-65404254D01*
X179584317Y-65232775D01*
X179584309Y-65232770D01*
X179333166Y-65095635D01*
X179333167Y-65095635D01*
X179225915Y-65055632D01*
X179162917Y-65032135D01*
X188499500Y-65032135D01*
X188499500Y-68127870D01*
X188499501Y-68127876D01*
X188505908Y-68187483D01*
X188556202Y-68322328D01*
X188556206Y-68322335D01*
X188642452Y-68437544D01*
X188642455Y-68437547D01*
X188757664Y-68523793D01*
X188757671Y-68523797D01*
X188892517Y-68574091D01*
X188892516Y-68574091D01*
X188899444Y-68574835D01*
X188952127Y-68580500D01*
X192047872Y-68580499D01*
X192107483Y-68574091D01*
X192242331Y-68523796D01*
X192357546Y-68437546D01*
X192443796Y-68322331D01*
X192494091Y-68187483D01*
X192500500Y-68127873D01*
X192500499Y-65852135D01*
X198899500Y-65852135D01*
X198899500Y-68147870D01*
X198899501Y-68147876D01*
X198905908Y-68207483D01*
X198956202Y-68342328D01*
X198956206Y-68342335D01*
X199042452Y-68457544D01*
X199042455Y-68457547D01*
X199157664Y-68543793D01*
X199157671Y-68543797D01*
X199292517Y-68594091D01*
X199292516Y-68594091D01*
X199299444Y-68594835D01*
X199352127Y-68600500D01*
X201647872Y-68600499D01*
X201707483Y-68594091D01*
X201842331Y-68543796D01*
X201957546Y-68457546D01*
X202043796Y-68342331D01*
X202094091Y-68207483D01*
X202100500Y-68147873D01*
X202100499Y-67000000D01*
X209054551Y-67000000D01*
X209074317Y-67251151D01*
X209133126Y-67496110D01*
X209229533Y-67728859D01*
X209361160Y-67943653D01*
X209361161Y-67943656D01*
X209361164Y-67943659D01*
X209524776Y-68135224D01*
X209639731Y-68233405D01*
X209716343Y-68298838D01*
X209716346Y-68298839D01*
X209931140Y-68430466D01*
X210156453Y-68523793D01*
X210163889Y-68526873D01*
X210408852Y-68585683D01*
X210660000Y-68605449D01*
X210911148Y-68585683D01*
X211156111Y-68526873D01*
X211388859Y-68430466D01*
X211603659Y-68298836D01*
X211795224Y-68135224D01*
X211958836Y-67943659D01*
X212090466Y-67728859D01*
X212186873Y-67496111D01*
X212245683Y-67251148D01*
X212265449Y-67000000D01*
X212245683Y-66748852D01*
X212186873Y-66503889D01*
X212125186Y-66354962D01*
X212090466Y-66271140D01*
X211958839Y-66056346D01*
X211958838Y-66056343D01*
X211921875Y-66013066D01*
X211795224Y-65864776D01*
X211668571Y-65756604D01*
X211603656Y-65701161D01*
X211603653Y-65701160D01*
X211388859Y-65569533D01*
X211156110Y-65473126D01*
X210911151Y-65414317D01*
X210660000Y-65394551D01*
X210408848Y-65414317D01*
X210163889Y-65473126D01*
X209931140Y-65569533D01*
X209716346Y-65701160D01*
X209716343Y-65701161D01*
X209524776Y-65864776D01*
X209361161Y-66056343D01*
X209361160Y-66056346D01*
X209229533Y-66271140D01*
X209133126Y-66503889D01*
X209074317Y-66748848D01*
X209054551Y-67000000D01*
X202100499Y-67000000D01*
X202100499Y-65852128D01*
X202094091Y-65792517D01*
X202060017Y-65701161D01*
X202043797Y-65657671D01*
X202043793Y-65657664D01*
X201957547Y-65542455D01*
X201957544Y-65542452D01*
X201842335Y-65456206D01*
X201842328Y-65456202D01*
X201707482Y-65405908D01*
X201707483Y-65405908D01*
X201647883Y-65399501D01*
X201647881Y-65399500D01*
X201647873Y-65399500D01*
X201647864Y-65399500D01*
X199352129Y-65399500D01*
X199352123Y-65399501D01*
X199292516Y-65405908D01*
X199157671Y-65456202D01*
X199157664Y-65456206D01*
X199042455Y-65542452D01*
X199042452Y-65542455D01*
X198956206Y-65657664D01*
X198956202Y-65657671D01*
X198905908Y-65792517D01*
X198901267Y-65835690D01*
X198899501Y-65852123D01*
X198899500Y-65852135D01*
X192500499Y-65852135D01*
X192500499Y-65032128D01*
X192494091Y-64972517D01*
X192443796Y-64837669D01*
X192443795Y-64837668D01*
X192443793Y-64837664D01*
X192357547Y-64722455D01*
X192357544Y-64722452D01*
X192242335Y-64636206D01*
X192242328Y-64636202D01*
X192107482Y-64585908D01*
X192107483Y-64585908D01*
X192047883Y-64579501D01*
X192047881Y-64579500D01*
X192047873Y-64579500D01*
X192047864Y-64579500D01*
X188952129Y-64579500D01*
X188952123Y-64579501D01*
X188892516Y-64585908D01*
X188757671Y-64636202D01*
X188757664Y-64636206D01*
X188642455Y-64722452D01*
X188642452Y-64722455D01*
X188556206Y-64837664D01*
X188556202Y-64837671D01*
X188505908Y-64972517D01*
X188499501Y-65032116D01*
X188499501Y-65032123D01*
X188499500Y-65032135D01*
X179162917Y-65032135D01*
X179065046Y-64995631D01*
X179065043Y-64995630D01*
X179065037Y-64995628D01*
X178785433Y-64934804D01*
X178500001Y-64914390D01*
X178499999Y-64914390D01*
X178214566Y-64934804D01*
X177934962Y-64995628D01*
X177666833Y-65095635D01*
X177415690Y-65232770D01*
X177415682Y-65232775D01*
X177186612Y-65404254D01*
X177186594Y-65404270D01*
X176984270Y-65606594D01*
X176984254Y-65606612D01*
X176812775Y-65835682D01*
X176812770Y-65835690D01*
X176675635Y-66086833D01*
X176575628Y-66354962D01*
X176514804Y-66634566D01*
X176494390Y-66919998D01*
X173000000Y-66919998D01*
X173000000Y-61499998D01*
X188494891Y-61499998D01*
X188494891Y-61500001D01*
X188515300Y-61785362D01*
X188576109Y-62064895D01*
X188676091Y-62332958D01*
X188813191Y-62584038D01*
X188813196Y-62584046D01*
X188919882Y-62726562D01*
X188919883Y-62726563D01*
X189814768Y-61831678D01*
X189826497Y-61859995D01*
X189909670Y-61984472D01*
X190015528Y-62090330D01*
X190140005Y-62173503D01*
X190168320Y-62185231D01*
X189273435Y-63080115D01*
X189273436Y-63080116D01*
X189415953Y-63186803D01*
X189415961Y-63186808D01*
X189667042Y-63323908D01*
X189667041Y-63323908D01*
X189935104Y-63423890D01*
X190214637Y-63484699D01*
X190499999Y-63505109D01*
X190500001Y-63505109D01*
X190785362Y-63484699D01*
X191064895Y-63423890D01*
X191332958Y-63323908D01*
X191584038Y-63186808D01*
X191584039Y-63186807D01*
X191726563Y-63080115D01*
X190831679Y-62185231D01*
X190859995Y-62173503D01*
X190984472Y-62090330D01*
X191090330Y-61984472D01*
X191173503Y-61859995D01*
X191185231Y-61831679D01*
X192080115Y-62726563D01*
X192186807Y-62584039D01*
X192186808Y-62584038D01*
X192323908Y-62332958D01*
X192423890Y-62064895D01*
X192484699Y-61785362D01*
X192505109Y-61500001D01*
X192505109Y-61499998D01*
X192494533Y-61352135D01*
X198819500Y-61352135D01*
X198819500Y-63647870D01*
X198819501Y-63647876D01*
X198825908Y-63707483D01*
X198876202Y-63842328D01*
X198876206Y-63842335D01*
X198962452Y-63957544D01*
X198962455Y-63957547D01*
X199077664Y-64043793D01*
X199077671Y-64043797D01*
X199212517Y-64094091D01*
X199212516Y-64094091D01*
X199219444Y-64094835D01*
X199272127Y-64100500D01*
X201567872Y-64100499D01*
X201627483Y-64094091D01*
X201762331Y-64043796D01*
X201877546Y-63957546D01*
X201963796Y-63842331D01*
X202014091Y-63707483D01*
X202020500Y-63647873D01*
X202020499Y-62249999D01*
X208994728Y-62249999D01*
X208994729Y-62250000D01*
X210089252Y-62250000D01*
X210067482Y-62287708D01*
X210030000Y-62427591D01*
X210030000Y-62572409D01*
X210067482Y-62712292D01*
X210089252Y-62750000D01*
X208994728Y-62750000D01*
X208994811Y-62751067D01*
X209053603Y-62995956D01*
X209149980Y-63228631D01*
X209281568Y-63443362D01*
X209281571Y-63443367D01*
X209445130Y-63634869D01*
X209636632Y-63798428D01*
X209636637Y-63798431D01*
X209851368Y-63930019D01*
X210084043Y-64026396D01*
X210328932Y-64085188D01*
X210330000Y-64085271D01*
X210330000Y-62990747D01*
X210367708Y-63012518D01*
X210507591Y-63050000D01*
X210652409Y-63050000D01*
X210792292Y-63012518D01*
X210830000Y-62990747D01*
X210830000Y-64085271D01*
X210831067Y-64085188D01*
X211075956Y-64026396D01*
X211308631Y-63930019D01*
X211523362Y-63798431D01*
X211523367Y-63798428D01*
X211714869Y-63634869D01*
X211878428Y-63443367D01*
X211878431Y-63443362D01*
X212010019Y-63228631D01*
X212106396Y-62995956D01*
X212165188Y-62751067D01*
X212165272Y-62750000D01*
X211070748Y-62750000D01*
X211092518Y-62712292D01*
X211130000Y-62572409D01*
X211130000Y-62427591D01*
X211092518Y-62287708D01*
X211070748Y-62250000D01*
X212165271Y-62250000D01*
X212165271Y-62249999D01*
X212165188Y-62248932D01*
X212106396Y-62004043D01*
X212010019Y-61771368D01*
X211878431Y-61556637D01*
X211878428Y-61556632D01*
X211714869Y-61365130D01*
X211523367Y-61201571D01*
X211523362Y-61201568D01*
X211308631Y-61069980D01*
X211075956Y-60973603D01*
X210831064Y-60914811D01*
X210830000Y-60914726D01*
X210830000Y-62009252D01*
X210792292Y-61987482D01*
X210652409Y-61950000D01*
X210507591Y-61950000D01*
X210367708Y-61987482D01*
X210330000Y-62009252D01*
X210330000Y-60914726D01*
X210328935Y-60914811D01*
X210084043Y-60973603D01*
X209851368Y-61069980D01*
X209636637Y-61201568D01*
X209636632Y-61201571D01*
X209445130Y-61365130D01*
X209281571Y-61556632D01*
X209281568Y-61556637D01*
X209149980Y-61771368D01*
X209053603Y-62004043D01*
X208994811Y-62248932D01*
X208994728Y-62249999D01*
X202020499Y-62249999D01*
X202020499Y-61352128D01*
X202014091Y-61292517D01*
X202008794Y-61278316D01*
X201963797Y-61157671D01*
X201963793Y-61157664D01*
X201877547Y-61042455D01*
X201877544Y-61042452D01*
X201762335Y-60956206D01*
X201762328Y-60956202D01*
X201627482Y-60905908D01*
X201627483Y-60905908D01*
X201567883Y-60899501D01*
X201567881Y-60899500D01*
X201567873Y-60899500D01*
X201567864Y-60899500D01*
X199272129Y-60899500D01*
X199272123Y-60899501D01*
X199212516Y-60905908D01*
X199077671Y-60956202D01*
X199077664Y-60956206D01*
X198962455Y-61042452D01*
X198962452Y-61042455D01*
X198876206Y-61157664D01*
X198876202Y-61157671D01*
X198825908Y-61292517D01*
X198819501Y-61352116D01*
X198819501Y-61352123D01*
X198819500Y-61352135D01*
X192494533Y-61352135D01*
X192484699Y-61214637D01*
X192423890Y-60935104D01*
X192323908Y-60667041D01*
X192186808Y-60415961D01*
X192186803Y-60415953D01*
X192080116Y-60273436D01*
X192080115Y-60273435D01*
X191185231Y-61168320D01*
X191173503Y-61140005D01*
X191090330Y-61015528D01*
X190984472Y-60909670D01*
X190859995Y-60826497D01*
X190831678Y-60814767D01*
X191726563Y-59919883D01*
X191726562Y-59919882D01*
X191584046Y-59813196D01*
X191584038Y-59813191D01*
X191332957Y-59676091D01*
X191332958Y-59676091D01*
X191064895Y-59576109D01*
X190785362Y-59515300D01*
X190500001Y-59494891D01*
X190499999Y-59494891D01*
X190214637Y-59515300D01*
X189935104Y-59576109D01*
X189667041Y-59676091D01*
X189415961Y-59813191D01*
X189415953Y-59813196D01*
X189273435Y-59919882D01*
X190168321Y-60814767D01*
X190140005Y-60826497D01*
X190015528Y-60909670D01*
X189909670Y-61015528D01*
X189826497Y-61140005D01*
X189814768Y-61168321D01*
X188919882Y-60273435D01*
X188813196Y-60415953D01*
X188813191Y-60415961D01*
X188676091Y-60667041D01*
X188576109Y-60935104D01*
X188515300Y-61214637D01*
X188494891Y-61499998D01*
X173000000Y-61499998D01*
X173000000Y-56419998D01*
X188494390Y-56419998D01*
X188494390Y-56420001D01*
X188514804Y-56705433D01*
X188575628Y-56985037D01*
X188575630Y-56985043D01*
X188575631Y-56985046D01*
X188602225Y-57056346D01*
X188675635Y-57253166D01*
X188812770Y-57504309D01*
X188812775Y-57504317D01*
X188984254Y-57733387D01*
X188984270Y-57733405D01*
X189186594Y-57935729D01*
X189186612Y-57935745D01*
X189415682Y-58107224D01*
X189415690Y-58107229D01*
X189666833Y-58244364D01*
X189666832Y-58244364D01*
X189666836Y-58244365D01*
X189666839Y-58244367D01*
X189934954Y-58344369D01*
X189934960Y-58344370D01*
X189934962Y-58344371D01*
X190214566Y-58405195D01*
X190214568Y-58405195D01*
X190214572Y-58405196D01*
X190468220Y-58423337D01*
X190499999Y-58425610D01*
X190500000Y-58425610D01*
X190500001Y-58425610D01*
X190528595Y-58423564D01*
X190785428Y-58405196D01*
X191065046Y-58344369D01*
X191333161Y-58244367D01*
X191584315Y-58107226D01*
X191813395Y-57935739D01*
X192015739Y-57733395D01*
X192187226Y-57504315D01*
X192324367Y-57253161D01*
X192424369Y-56985046D01*
X192453282Y-56852135D01*
X198819500Y-56852135D01*
X198819500Y-59147870D01*
X198819501Y-59147876D01*
X198825908Y-59207483D01*
X198876202Y-59342328D01*
X198876206Y-59342335D01*
X198962452Y-59457544D01*
X198962455Y-59457547D01*
X199077664Y-59543793D01*
X199077671Y-59543797D01*
X199212517Y-59594091D01*
X199212516Y-59594091D01*
X199219444Y-59594835D01*
X199272127Y-59600500D01*
X201567872Y-59600499D01*
X201627483Y-59594091D01*
X201762331Y-59543796D01*
X201877546Y-59457546D01*
X201963796Y-59342331D01*
X202014091Y-59207483D01*
X202020500Y-59147873D01*
X202020499Y-58000000D01*
X208974551Y-58000000D01*
X208994317Y-58251151D01*
X209053126Y-58496110D01*
X209149533Y-58728859D01*
X209281160Y-58943653D01*
X209281161Y-58943656D01*
X209281164Y-58943659D01*
X209444776Y-59135224D01*
X209593066Y-59261875D01*
X209636343Y-59298838D01*
X209636346Y-59298839D01*
X209851140Y-59430466D01*
X210006677Y-59494891D01*
X210083889Y-59526873D01*
X210328852Y-59585683D01*
X210580000Y-59605449D01*
X210831148Y-59585683D01*
X211076111Y-59526873D01*
X211308859Y-59430466D01*
X211523659Y-59298836D01*
X211715224Y-59135224D01*
X211878836Y-58943659D01*
X212010466Y-58728859D01*
X212106873Y-58496111D01*
X212165683Y-58251148D01*
X212185449Y-58000000D01*
X212165683Y-57748852D01*
X212106873Y-57503889D01*
X212010466Y-57271141D01*
X212010466Y-57271140D01*
X211878839Y-57056346D01*
X211878838Y-57056343D01*
X211817944Y-56985046D01*
X211715224Y-56864776D01*
X211588571Y-56756604D01*
X211523656Y-56701161D01*
X211523653Y-56701160D01*
X211308859Y-56569533D01*
X211076110Y-56473126D01*
X210831151Y-56414317D01*
X210580000Y-56394551D01*
X210328848Y-56414317D01*
X210083889Y-56473126D01*
X209851140Y-56569533D01*
X209636346Y-56701160D01*
X209636343Y-56701161D01*
X209444776Y-56864776D01*
X209281161Y-57056343D01*
X209281160Y-57056346D01*
X209149533Y-57271140D01*
X209053126Y-57503889D01*
X208994317Y-57748848D01*
X208974551Y-58000000D01*
X202020499Y-58000000D01*
X202020499Y-56852128D01*
X202014091Y-56792517D01*
X201980017Y-56701161D01*
X201963797Y-56657671D01*
X201963793Y-56657664D01*
X201877547Y-56542455D01*
X201877544Y-56542452D01*
X201762335Y-56456206D01*
X201762328Y-56456202D01*
X201627482Y-56405908D01*
X201627483Y-56405908D01*
X201567883Y-56399501D01*
X201567881Y-56399500D01*
X201567873Y-56399500D01*
X201567864Y-56399500D01*
X199272129Y-56399500D01*
X199272123Y-56399501D01*
X199212516Y-56405908D01*
X199077671Y-56456202D01*
X199077664Y-56456206D01*
X198962455Y-56542452D01*
X198962452Y-56542455D01*
X198876206Y-56657664D01*
X198876202Y-56657671D01*
X198825908Y-56792517D01*
X198819501Y-56852116D01*
X198819501Y-56852123D01*
X198819500Y-56852135D01*
X192453282Y-56852135D01*
X192453283Y-56852129D01*
X192485195Y-56705433D01*
X192485195Y-56705432D01*
X192485196Y-56705428D01*
X192505610Y-56420000D01*
X192485196Y-56134572D01*
X192424369Y-55854954D01*
X192324367Y-55586839D01*
X192187226Y-55335685D01*
X192187224Y-55335682D01*
X192015745Y-55106612D01*
X192015729Y-55106594D01*
X191813405Y-54904270D01*
X191813387Y-54904254D01*
X191584317Y-54732775D01*
X191584309Y-54732770D01*
X191333166Y-54595635D01*
X191333167Y-54595635D01*
X191225915Y-54555632D01*
X191065046Y-54495631D01*
X191065043Y-54495630D01*
X191065037Y-54495628D01*
X190785433Y-54434804D01*
X190500001Y-54414390D01*
X190499999Y-54414390D01*
X190214566Y-54434804D01*
X189934962Y-54495628D01*
X189666833Y-54595635D01*
X189415690Y-54732770D01*
X189415682Y-54732775D01*
X189186612Y-54904254D01*
X189186594Y-54904270D01*
X188984270Y-55106594D01*
X188984254Y-55106612D01*
X188812775Y-55335682D01*
X188812770Y-55335690D01*
X188675635Y-55586833D01*
X188575628Y-55854962D01*
X188514804Y-56134566D01*
X188494390Y-56419998D01*
X173000000Y-56419998D01*
X173000000Y-55458853D01*
X174683000Y-55458853D01*
X181712535Y-55458853D01*
X181712535Y-52642803D01*
X174683000Y-52642803D01*
X174683000Y-55458853D01*
X173000000Y-55458853D01*
X173000000Y-51458853D01*
X176683000Y-51458853D01*
X194069678Y-51458853D01*
X194069678Y-48642803D01*
X176683000Y-48642803D01*
X176683000Y-51458853D01*
X173000000Y-51458853D01*
X173000000Y-48124000D01*
X173019685Y-48056961D01*
X173072489Y-48011206D01*
X173124000Y-48000000D01*
X214876000Y-48000000D01*
X214943039Y-48019685D01*
G37*
%TD.AperFunction*%
%TD*%
M02*
