%TF.GenerationSoftware,KiCad,Pcbnew,8.0.8*%
%TF.CreationDate,2025-01-25T14:39:54+05:30*%
%TF.ProjectId,AC to DC conveter,41432074-6f20-4444-9320-636f6e766574,rev?*%
%TF.SameCoordinates,Original*%
%TF.FileFunction,Legend,Top*%
%TF.FilePolarity,Positive*%
%FSLAX46Y46*%
G04 Gerber Fmt 4.6, Leading zero omitted, Abs format (unit mm)*
G04 Created by KiCad (PCBNEW 8.0.8) date 2025-01-25 14:39:54*
%MOMM*%
%LPD*%
G01*
G04 APERTURE LIST*
%ADD10C,0.150000*%
%ADD11C,0.120000*%
G04 APERTURE END LIST*
D10*
X190184819Y-76666666D02*
X189708628Y-76999999D01*
X190184819Y-77238094D02*
X189184819Y-77238094D01*
X189184819Y-77238094D02*
X189184819Y-76857142D01*
X189184819Y-76857142D02*
X189232438Y-76761904D01*
X189232438Y-76761904D02*
X189280057Y-76714285D01*
X189280057Y-76714285D02*
X189375295Y-76666666D01*
X189375295Y-76666666D02*
X189518152Y-76666666D01*
X189518152Y-76666666D02*
X189613390Y-76714285D01*
X189613390Y-76714285D02*
X189661009Y-76761904D01*
X189661009Y-76761904D02*
X189708628Y-76857142D01*
X189708628Y-76857142D02*
X189708628Y-77238094D01*
X189280057Y-76285713D02*
X189232438Y-76238094D01*
X189232438Y-76238094D02*
X189184819Y-76142856D01*
X189184819Y-76142856D02*
X189184819Y-75904761D01*
X189184819Y-75904761D02*
X189232438Y-75809523D01*
X189232438Y-75809523D02*
X189280057Y-75761904D01*
X189280057Y-75761904D02*
X189375295Y-75714285D01*
X189375295Y-75714285D02*
X189470533Y-75714285D01*
X189470533Y-75714285D02*
X189613390Y-75761904D01*
X189613390Y-75761904D02*
X190184819Y-76333332D01*
X190184819Y-76333332D02*
X190184819Y-75714285D01*
X187034819Y-76666666D02*
X186558628Y-76999999D01*
X187034819Y-77238094D02*
X186034819Y-77238094D01*
X186034819Y-77238094D02*
X186034819Y-76857142D01*
X186034819Y-76857142D02*
X186082438Y-76761904D01*
X186082438Y-76761904D02*
X186130057Y-76714285D01*
X186130057Y-76714285D02*
X186225295Y-76666666D01*
X186225295Y-76666666D02*
X186368152Y-76666666D01*
X186368152Y-76666666D02*
X186463390Y-76714285D01*
X186463390Y-76714285D02*
X186511009Y-76761904D01*
X186511009Y-76761904D02*
X186558628Y-76857142D01*
X186558628Y-76857142D02*
X186558628Y-77238094D01*
X187034819Y-75714285D02*
X187034819Y-76285713D01*
X187034819Y-75999999D02*
X186034819Y-75999999D01*
X186034819Y-75999999D02*
X186177676Y-76095237D01*
X186177676Y-76095237D02*
X186272914Y-76190475D01*
X186272914Y-76190475D02*
X186320533Y-76285713D01*
X173304819Y-72363333D02*
X174019104Y-72363333D01*
X174019104Y-72363333D02*
X174161961Y-72410952D01*
X174161961Y-72410952D02*
X174257200Y-72506190D01*
X174257200Y-72506190D02*
X174304819Y-72649047D01*
X174304819Y-72649047D02*
X174304819Y-72744285D01*
X173400057Y-71934761D02*
X173352438Y-71887142D01*
X173352438Y-71887142D02*
X173304819Y-71791904D01*
X173304819Y-71791904D02*
X173304819Y-71553809D01*
X173304819Y-71553809D02*
X173352438Y-71458571D01*
X173352438Y-71458571D02*
X173400057Y-71410952D01*
X173400057Y-71410952D02*
X173495295Y-71363333D01*
X173495295Y-71363333D02*
X173590533Y-71363333D01*
X173590533Y-71363333D02*
X173733390Y-71410952D01*
X173733390Y-71410952D02*
X174304819Y-71982380D01*
X174304819Y-71982380D02*
X174304819Y-71363333D01*
X185304819Y-61863333D02*
X186019104Y-61863333D01*
X186019104Y-61863333D02*
X186161961Y-61910952D01*
X186161961Y-61910952D02*
X186257200Y-62006190D01*
X186257200Y-62006190D02*
X186304819Y-62149047D01*
X186304819Y-62149047D02*
X186304819Y-62244285D01*
X186304819Y-60863333D02*
X186304819Y-61434761D01*
X186304819Y-61149047D02*
X185304819Y-61149047D01*
X185304819Y-61149047D02*
X185447676Y-61244285D01*
X185447676Y-61244285D02*
X185542914Y-61339523D01*
X185542914Y-61339523D02*
X185590533Y-61434761D01*
X195414819Y-84508094D02*
X194414819Y-84508094D01*
X194414819Y-84508094D02*
X194414819Y-84269999D01*
X194414819Y-84269999D02*
X194462438Y-84127142D01*
X194462438Y-84127142D02*
X194557676Y-84031904D01*
X194557676Y-84031904D02*
X194652914Y-83984285D01*
X194652914Y-83984285D02*
X194843390Y-83936666D01*
X194843390Y-83936666D02*
X194986247Y-83936666D01*
X194986247Y-83936666D02*
X195176723Y-83984285D01*
X195176723Y-83984285D02*
X195271961Y-84031904D01*
X195271961Y-84031904D02*
X195367200Y-84127142D01*
X195367200Y-84127142D02*
X195414819Y-84269999D01*
X195414819Y-84269999D02*
X195414819Y-84508094D01*
X194414819Y-83031904D02*
X194414819Y-83508094D01*
X194414819Y-83508094D02*
X194891009Y-83555713D01*
X194891009Y-83555713D02*
X194843390Y-83508094D01*
X194843390Y-83508094D02*
X194795771Y-83412856D01*
X194795771Y-83412856D02*
X194795771Y-83174761D01*
X194795771Y-83174761D02*
X194843390Y-83079523D01*
X194843390Y-83079523D02*
X194891009Y-83031904D01*
X194891009Y-83031904D02*
X194986247Y-82984285D01*
X194986247Y-82984285D02*
X195224342Y-82984285D01*
X195224342Y-82984285D02*
X195319580Y-83031904D01*
X195319580Y-83031904D02*
X195367200Y-83079523D01*
X195367200Y-83079523D02*
X195414819Y-83174761D01*
X195414819Y-83174761D02*
X195414819Y-83412856D01*
X195414819Y-83412856D02*
X195367200Y-83508094D01*
X195367200Y-83508094D02*
X195319580Y-83555713D01*
X204841905Y-69484819D02*
X204841905Y-68484819D01*
X204841905Y-68484819D02*
X205080000Y-68484819D01*
X205080000Y-68484819D02*
X205222857Y-68532438D01*
X205222857Y-68532438D02*
X205318095Y-68627676D01*
X205318095Y-68627676D02*
X205365714Y-68722914D01*
X205365714Y-68722914D02*
X205413333Y-68913390D01*
X205413333Y-68913390D02*
X205413333Y-69056247D01*
X205413333Y-69056247D02*
X205365714Y-69246723D01*
X205365714Y-69246723D02*
X205318095Y-69341961D01*
X205318095Y-69341961D02*
X205222857Y-69437200D01*
X205222857Y-69437200D02*
X205080000Y-69484819D01*
X205080000Y-69484819D02*
X204841905Y-69484819D01*
X206270476Y-68818152D02*
X206270476Y-69484819D01*
X206032381Y-68437200D02*
X205794286Y-69151485D01*
X205794286Y-69151485D02*
X206413333Y-69151485D01*
X200238095Y-69854819D02*
X200238095Y-68854819D01*
X200809523Y-69854819D02*
X200380952Y-69283390D01*
X200809523Y-68854819D02*
X200238095Y-69426247D01*
X204841905Y-64984819D02*
X204841905Y-63984819D01*
X204841905Y-63984819D02*
X205080000Y-63984819D01*
X205080000Y-63984819D02*
X205222857Y-64032438D01*
X205222857Y-64032438D02*
X205318095Y-64127676D01*
X205318095Y-64127676D02*
X205365714Y-64222914D01*
X205365714Y-64222914D02*
X205413333Y-64413390D01*
X205413333Y-64413390D02*
X205413333Y-64556247D01*
X205413333Y-64556247D02*
X205365714Y-64746723D01*
X205365714Y-64746723D02*
X205318095Y-64841961D01*
X205318095Y-64841961D02*
X205222857Y-64937200D01*
X205222857Y-64937200D02*
X205080000Y-64984819D01*
X205080000Y-64984819D02*
X204841905Y-64984819D01*
X205746667Y-63984819D02*
X206365714Y-63984819D01*
X206365714Y-63984819D02*
X206032381Y-64365771D01*
X206032381Y-64365771D02*
X206175238Y-64365771D01*
X206175238Y-64365771D02*
X206270476Y-64413390D01*
X206270476Y-64413390D02*
X206318095Y-64461009D01*
X206318095Y-64461009D02*
X206365714Y-64556247D01*
X206365714Y-64556247D02*
X206365714Y-64794342D01*
X206365714Y-64794342D02*
X206318095Y-64889580D01*
X206318095Y-64889580D02*
X206270476Y-64937200D01*
X206270476Y-64937200D02*
X206175238Y-64984819D01*
X206175238Y-64984819D02*
X205889524Y-64984819D01*
X205889524Y-64984819D02*
X205794286Y-64937200D01*
X205794286Y-64937200D02*
X205746667Y-64889580D01*
X200238095Y-65354819D02*
X200238095Y-64354819D01*
X200809523Y-65354819D02*
X200380952Y-64783390D01*
X200809523Y-64354819D02*
X200238095Y-64926247D01*
X204761905Y-60484819D02*
X204761905Y-59484819D01*
X204761905Y-59484819D02*
X205000000Y-59484819D01*
X205000000Y-59484819D02*
X205142857Y-59532438D01*
X205142857Y-59532438D02*
X205238095Y-59627676D01*
X205238095Y-59627676D02*
X205285714Y-59722914D01*
X205285714Y-59722914D02*
X205333333Y-59913390D01*
X205333333Y-59913390D02*
X205333333Y-60056247D01*
X205333333Y-60056247D02*
X205285714Y-60246723D01*
X205285714Y-60246723D02*
X205238095Y-60341961D01*
X205238095Y-60341961D02*
X205142857Y-60437200D01*
X205142857Y-60437200D02*
X205000000Y-60484819D01*
X205000000Y-60484819D02*
X204761905Y-60484819D01*
X205714286Y-59580057D02*
X205761905Y-59532438D01*
X205761905Y-59532438D02*
X205857143Y-59484819D01*
X205857143Y-59484819D02*
X206095238Y-59484819D01*
X206095238Y-59484819D02*
X206190476Y-59532438D01*
X206190476Y-59532438D02*
X206238095Y-59580057D01*
X206238095Y-59580057D02*
X206285714Y-59675295D01*
X206285714Y-59675295D02*
X206285714Y-59770533D01*
X206285714Y-59770533D02*
X206238095Y-59913390D01*
X206238095Y-59913390D02*
X205666667Y-60484819D01*
X205666667Y-60484819D02*
X206285714Y-60484819D01*
X200158095Y-60854819D02*
X200158095Y-59854819D01*
X200729523Y-60854819D02*
X200300952Y-60283390D01*
X200729523Y-59854819D02*
X200158095Y-60426247D01*
X204761905Y-55984819D02*
X204761905Y-54984819D01*
X204761905Y-54984819D02*
X205000000Y-54984819D01*
X205000000Y-54984819D02*
X205142857Y-55032438D01*
X205142857Y-55032438D02*
X205238095Y-55127676D01*
X205238095Y-55127676D02*
X205285714Y-55222914D01*
X205285714Y-55222914D02*
X205333333Y-55413390D01*
X205333333Y-55413390D02*
X205333333Y-55556247D01*
X205333333Y-55556247D02*
X205285714Y-55746723D01*
X205285714Y-55746723D02*
X205238095Y-55841961D01*
X205238095Y-55841961D02*
X205142857Y-55937200D01*
X205142857Y-55937200D02*
X205000000Y-55984819D01*
X205000000Y-55984819D02*
X204761905Y-55984819D01*
X206285714Y-55984819D02*
X205714286Y-55984819D01*
X206000000Y-55984819D02*
X206000000Y-54984819D01*
X206000000Y-54984819D02*
X205904762Y-55127676D01*
X205904762Y-55127676D02*
X205809524Y-55222914D01*
X205809524Y-55222914D02*
X205714286Y-55270533D01*
X200158095Y-56354819D02*
X200158095Y-55354819D01*
X200729523Y-56354819D02*
X200300952Y-55783390D01*
X200729523Y-55354819D02*
X200158095Y-55926247D01*
X204833333Y-75109580D02*
X204785714Y-75157200D01*
X204785714Y-75157200D02*
X204642857Y-75204819D01*
X204642857Y-75204819D02*
X204547619Y-75204819D01*
X204547619Y-75204819D02*
X204404762Y-75157200D01*
X204404762Y-75157200D02*
X204309524Y-75061961D01*
X204309524Y-75061961D02*
X204261905Y-74966723D01*
X204261905Y-74966723D02*
X204214286Y-74776247D01*
X204214286Y-74776247D02*
X204214286Y-74633390D01*
X204214286Y-74633390D02*
X204261905Y-74442914D01*
X204261905Y-74442914D02*
X204309524Y-74347676D01*
X204309524Y-74347676D02*
X204404762Y-74252438D01*
X204404762Y-74252438D02*
X204547619Y-74204819D01*
X204547619Y-74204819D02*
X204642857Y-74204819D01*
X204642857Y-74204819D02*
X204785714Y-74252438D01*
X204785714Y-74252438D02*
X204833333Y-74300057D01*
X205785714Y-75204819D02*
X205214286Y-75204819D01*
X205500000Y-75204819D02*
X205500000Y-74204819D01*
X205500000Y-74204819D02*
X205404762Y-74347676D01*
X205404762Y-74347676D02*
X205309524Y-74442914D01*
X205309524Y-74442914D02*
X205214286Y-74490533D01*
D11*
%TO.C,R2*%
X190730000Y-78420000D02*
X190730000Y-74580000D01*
X192570000Y-78420000D02*
X192570000Y-74580000D01*
%TO.C,R1*%
X187580000Y-78420000D02*
X187580000Y-74580000D01*
X189420000Y-78420000D02*
X189420000Y-74580000D01*
%TO.C,J2*%
X174690000Y-79620000D02*
X174690000Y-64380000D01*
X181040000Y-79620000D02*
X181040000Y-64380000D01*
X182310000Y-79620000D02*
X174690000Y-79620000D01*
X182310000Y-79620000D02*
X182310000Y-64380000D01*
X182310000Y-64380000D02*
X174690000Y-64380000D01*
%TO.C,J1*%
X186690000Y-69120000D02*
X186690000Y-53880000D01*
X193040000Y-69120000D02*
X193040000Y-53880000D01*
X194310000Y-69120000D02*
X186690000Y-69120000D01*
X194310000Y-69120000D02*
X194310000Y-53880000D01*
X194310000Y-53880000D02*
X186690000Y-53880000D01*
%TO.C,D5*%
X192545000Y-81210000D02*
X189455000Y-81210000D01*
X192544830Y-81210000D02*
G75*
G02*
X191000048Y-86760000I-1544830J-2560000D01*
G01*
X190999952Y-86760000D02*
G75*
G02*
X189455170Y-81210000I48J2990000D01*
G01*
X193500000Y-83770000D02*
G75*
G02*
X188500000Y-83770000I-2500000J0D01*
G01*
X188500000Y-83770000D02*
G75*
G02*
X193500000Y-83770000I2500000J0D01*
G01*
%TO.C,D4*%
X201840000Y-71500000D02*
X202860000Y-71500000D01*
X202860000Y-70030000D02*
X202860000Y-72970000D01*
X202860000Y-72970000D02*
X208300000Y-72970000D01*
X203640000Y-70030000D02*
X203640000Y-72970000D01*
X203760000Y-70030000D02*
X203760000Y-72970000D01*
X203880000Y-70030000D02*
X203880000Y-72970000D01*
X208300000Y-70030000D02*
X202860000Y-70030000D01*
X208300000Y-72970000D02*
X208300000Y-70030000D01*
X209320000Y-71500000D02*
X208300000Y-71500000D01*
%TO.C,D3*%
X201840000Y-67000000D02*
X202860000Y-67000000D01*
X202860000Y-65530000D02*
X202860000Y-68470000D01*
X202860000Y-68470000D02*
X208300000Y-68470000D01*
X203640000Y-65530000D02*
X203640000Y-68470000D01*
X203760000Y-65530000D02*
X203760000Y-68470000D01*
X203880000Y-65530000D02*
X203880000Y-68470000D01*
X208300000Y-65530000D02*
X202860000Y-65530000D01*
X208300000Y-68470000D02*
X208300000Y-65530000D01*
X209320000Y-67000000D02*
X208300000Y-67000000D01*
%TO.C,D2*%
X201760000Y-62500000D02*
X202780000Y-62500000D01*
X202780000Y-61030000D02*
X202780000Y-63970000D01*
X202780000Y-63970000D02*
X208220000Y-63970000D01*
X203560000Y-61030000D02*
X203560000Y-63970000D01*
X203680000Y-61030000D02*
X203680000Y-63970000D01*
X203800000Y-61030000D02*
X203800000Y-63970000D01*
X208220000Y-61030000D02*
X202780000Y-61030000D01*
X208220000Y-63970000D02*
X208220000Y-61030000D01*
X209240000Y-62500000D02*
X208220000Y-62500000D01*
%TO.C,D1*%
X201760000Y-58000000D02*
X202780000Y-58000000D01*
X202780000Y-56530000D02*
X202780000Y-59470000D01*
X202780000Y-59470000D02*
X208220000Y-59470000D01*
X203560000Y-56530000D02*
X203560000Y-59470000D01*
X203680000Y-56530000D02*
X203680000Y-59470000D01*
X203800000Y-56530000D02*
X203800000Y-59470000D01*
X208220000Y-56530000D02*
X202780000Y-56530000D01*
X208220000Y-59470000D02*
X208220000Y-56530000D01*
X209240000Y-58000000D02*
X208220000Y-58000000D01*
%TO.C,C1*%
X197915431Y-78785000D02*
X199215431Y-78785000D01*
X198565431Y-78135000D02*
X198565431Y-79435000D01*
X205000000Y-75920000D02*
X205000000Y-89080000D01*
X205040000Y-75920000D02*
X205040000Y-89080000D01*
X205080000Y-75920000D02*
X205080000Y-89080000D01*
X205120000Y-75921000D02*
X205120000Y-89079000D01*
X205160000Y-75921000D02*
X205160000Y-89079000D01*
X205200000Y-75923000D02*
X205200000Y-89077000D01*
X205240000Y-75924000D02*
X205240000Y-89076000D01*
X205280000Y-75925000D02*
X205280000Y-89075000D01*
X205320000Y-75927000D02*
X205320000Y-89073000D01*
X205360000Y-75929000D02*
X205360000Y-89071000D01*
X205400000Y-75932000D02*
X205400000Y-89068000D01*
X205440000Y-75934000D02*
X205440000Y-89066000D01*
X205480000Y-75937000D02*
X205480000Y-89063000D01*
X205520000Y-75940000D02*
X205520000Y-89060000D01*
X205560000Y-75943000D02*
X205560000Y-89057000D01*
X205600000Y-75947000D02*
X205600000Y-89053000D01*
X205640000Y-75951000D02*
X205640000Y-89049000D01*
X205680000Y-75955000D02*
X205680000Y-89045000D01*
X205721000Y-75959000D02*
X205721000Y-89041000D01*
X205761000Y-75963000D02*
X205761000Y-89037000D01*
X205801000Y-75968000D02*
X205801000Y-89032000D01*
X205841000Y-75973000D02*
X205841000Y-89027000D01*
X205881000Y-75978000D02*
X205881000Y-89022000D01*
X205921000Y-75984000D02*
X205921000Y-89016000D01*
X205961000Y-75989000D02*
X205961000Y-89011000D01*
X206001000Y-75995000D02*
X206001000Y-89005000D01*
X206041000Y-76002000D02*
X206041000Y-88998000D01*
X206081000Y-76008000D02*
X206081000Y-81060000D01*
X206081000Y-83940000D02*
X206081000Y-88992000D01*
X206121000Y-76015000D02*
X206121000Y-81060000D01*
X206121000Y-83940000D02*
X206121000Y-88985000D01*
X206161000Y-76022000D02*
X206161000Y-81060000D01*
X206161000Y-83940000D02*
X206161000Y-88978000D01*
X206201000Y-76029000D02*
X206201000Y-81060000D01*
X206201000Y-83940000D02*
X206201000Y-88971000D01*
X206241000Y-76037000D02*
X206241000Y-81060000D01*
X206241000Y-83940000D02*
X206241000Y-88963000D01*
X206281000Y-76044000D02*
X206281000Y-81060000D01*
X206281000Y-83940000D02*
X206281000Y-88956000D01*
X206321000Y-76052000D02*
X206321000Y-81060000D01*
X206321000Y-83940000D02*
X206321000Y-88948000D01*
X206361000Y-76061000D02*
X206361000Y-81060000D01*
X206361000Y-83940000D02*
X206361000Y-88939000D01*
X206401000Y-76069000D02*
X206401000Y-81060000D01*
X206401000Y-83940000D02*
X206401000Y-88931000D01*
X206441000Y-76078000D02*
X206441000Y-81060000D01*
X206441000Y-83940000D02*
X206441000Y-88922000D01*
X206481000Y-76087000D02*
X206481000Y-81060000D01*
X206481000Y-83940000D02*
X206481000Y-88913000D01*
X206521000Y-76096000D02*
X206521000Y-81060000D01*
X206521000Y-83940000D02*
X206521000Y-88904000D01*
X206561000Y-76106000D02*
X206561000Y-81060000D01*
X206561000Y-83940000D02*
X206561000Y-88894000D01*
X206601000Y-76116000D02*
X206601000Y-81060000D01*
X206601000Y-83940000D02*
X206601000Y-88884000D01*
X206641000Y-76126000D02*
X206641000Y-81060000D01*
X206641000Y-83940000D02*
X206641000Y-88874000D01*
X206681000Y-76136000D02*
X206681000Y-81060000D01*
X206681000Y-83940000D02*
X206681000Y-88864000D01*
X206721000Y-76147000D02*
X206721000Y-81060000D01*
X206721000Y-83940000D02*
X206721000Y-88853000D01*
X206761000Y-76158000D02*
X206761000Y-81060000D01*
X206761000Y-83940000D02*
X206761000Y-88842000D01*
X206801000Y-76169000D02*
X206801000Y-81060000D01*
X206801000Y-83940000D02*
X206801000Y-88831000D01*
X206841000Y-76180000D02*
X206841000Y-81060000D01*
X206841000Y-83940000D02*
X206841000Y-88820000D01*
X206881000Y-76192000D02*
X206881000Y-81060000D01*
X206881000Y-83940000D02*
X206881000Y-88808000D01*
X206921000Y-76204000D02*
X206921000Y-81060000D01*
X206921000Y-83940000D02*
X206921000Y-88796000D01*
X206961000Y-76216000D02*
X206961000Y-81060000D01*
X206961000Y-83940000D02*
X206961000Y-88784000D01*
X207001000Y-76229000D02*
X207001000Y-81060000D01*
X207001000Y-83940000D02*
X207001000Y-88771000D01*
X207041000Y-76242000D02*
X207041000Y-81060000D01*
X207041000Y-83940000D02*
X207041000Y-88758000D01*
X207081000Y-76255000D02*
X207081000Y-81060000D01*
X207081000Y-83940000D02*
X207081000Y-88745000D01*
X207121000Y-76268000D02*
X207121000Y-81060000D01*
X207121000Y-83940000D02*
X207121000Y-88732000D01*
X207161000Y-76282000D02*
X207161000Y-81060000D01*
X207161000Y-83940000D02*
X207161000Y-88718000D01*
X207201000Y-76296000D02*
X207201000Y-81060000D01*
X207201000Y-83940000D02*
X207201000Y-88704000D01*
X207241000Y-76310000D02*
X207241000Y-81060000D01*
X207241000Y-83940000D02*
X207241000Y-88690000D01*
X207281000Y-76325000D02*
X207281000Y-81060000D01*
X207281000Y-83940000D02*
X207281000Y-88675000D01*
X207321000Y-76339000D02*
X207321000Y-81060000D01*
X207321000Y-83940000D02*
X207321000Y-88661000D01*
X207361000Y-76354000D02*
X207361000Y-81060000D01*
X207361000Y-83940000D02*
X207361000Y-88646000D01*
X207401000Y-76370000D02*
X207401000Y-81060000D01*
X207401000Y-83940000D02*
X207401000Y-88630000D01*
X207441000Y-76386000D02*
X207441000Y-81060000D01*
X207441000Y-83940000D02*
X207441000Y-88614000D01*
X207481000Y-76402000D02*
X207481000Y-81060000D01*
X207481000Y-83940000D02*
X207481000Y-88598000D01*
X207521000Y-76418000D02*
X207521000Y-81060000D01*
X207521000Y-83940000D02*
X207521000Y-88582000D01*
X207561000Y-76435000D02*
X207561000Y-81060000D01*
X207561000Y-83940000D02*
X207561000Y-88565000D01*
X207601000Y-76451000D02*
X207601000Y-81060000D01*
X207601000Y-83940000D02*
X207601000Y-88549000D01*
X207641000Y-76469000D02*
X207641000Y-81060000D01*
X207641000Y-83940000D02*
X207641000Y-88531000D01*
X207681000Y-76486000D02*
X207681000Y-81060000D01*
X207681000Y-83940000D02*
X207681000Y-88514000D01*
X207721000Y-76504000D02*
X207721000Y-81060000D01*
X207721000Y-83940000D02*
X207721000Y-88496000D01*
X207761000Y-76522000D02*
X207761000Y-81060000D01*
X207761000Y-83940000D02*
X207761000Y-88478000D01*
X207801000Y-76541000D02*
X207801000Y-81060000D01*
X207801000Y-83940000D02*
X207801000Y-88459000D01*
X207841000Y-76560000D02*
X207841000Y-81060000D01*
X207841000Y-83940000D02*
X207841000Y-88440000D01*
X207881000Y-76579000D02*
X207881000Y-81060000D01*
X207881000Y-83940000D02*
X207881000Y-88421000D01*
X207921000Y-76598000D02*
X207921000Y-81060000D01*
X207921000Y-83940000D02*
X207921000Y-88402000D01*
X207961000Y-76618000D02*
X207961000Y-81060000D01*
X207961000Y-83940000D02*
X207961000Y-88382000D01*
X208001000Y-76638000D02*
X208001000Y-81060000D01*
X208001000Y-83940000D02*
X208001000Y-88362000D01*
X208041000Y-76659000D02*
X208041000Y-81060000D01*
X208041000Y-83940000D02*
X208041000Y-88341000D01*
X208081000Y-76680000D02*
X208081000Y-81060000D01*
X208081000Y-83940000D02*
X208081000Y-88320000D01*
X208121000Y-76701000D02*
X208121000Y-81060000D01*
X208121000Y-83940000D02*
X208121000Y-88299000D01*
X208161000Y-76722000D02*
X208161000Y-81060000D01*
X208161000Y-83940000D02*
X208161000Y-88278000D01*
X208201000Y-76744000D02*
X208201000Y-81060000D01*
X208201000Y-83940000D02*
X208201000Y-88256000D01*
X208241000Y-76767000D02*
X208241000Y-81060000D01*
X208241000Y-83940000D02*
X208241000Y-88233000D01*
X208281000Y-76789000D02*
X208281000Y-81060000D01*
X208281000Y-83940000D02*
X208281000Y-88211000D01*
X208321000Y-76812000D02*
X208321000Y-81060000D01*
X208321000Y-83940000D02*
X208321000Y-88188000D01*
X208361000Y-76836000D02*
X208361000Y-81060000D01*
X208361000Y-83940000D02*
X208361000Y-88164000D01*
X208401000Y-76859000D02*
X208401000Y-81060000D01*
X208401000Y-83940000D02*
X208401000Y-88141000D01*
X208441000Y-76883000D02*
X208441000Y-81060000D01*
X208441000Y-83940000D02*
X208441000Y-88117000D01*
X208481000Y-76908000D02*
X208481000Y-81060000D01*
X208481000Y-83940000D02*
X208481000Y-88092000D01*
X208521000Y-76933000D02*
X208521000Y-81060000D01*
X208521000Y-83940000D02*
X208521000Y-88067000D01*
X208561000Y-76958000D02*
X208561000Y-81060000D01*
X208561000Y-83940000D02*
X208561000Y-88042000D01*
X208601000Y-76984000D02*
X208601000Y-81060000D01*
X208601000Y-83940000D02*
X208601000Y-88016000D01*
X208641000Y-77010000D02*
X208641000Y-81060000D01*
X208641000Y-83940000D02*
X208641000Y-87990000D01*
X208681000Y-77037000D02*
X208681000Y-81060000D01*
X208681000Y-83940000D02*
X208681000Y-87963000D01*
X208721000Y-77064000D02*
X208721000Y-81060000D01*
X208721000Y-83940000D02*
X208721000Y-87936000D01*
X208761000Y-77091000D02*
X208761000Y-81060000D01*
X208761000Y-83940000D02*
X208761000Y-87909000D01*
X208801000Y-77119000D02*
X208801000Y-81060000D01*
X208801000Y-83940000D02*
X208801000Y-87881000D01*
X208841000Y-77147000D02*
X208841000Y-81060000D01*
X208841000Y-83940000D02*
X208841000Y-87853000D01*
X208881000Y-77176000D02*
X208881000Y-81060000D01*
X208881000Y-83940000D02*
X208881000Y-87824000D01*
X208921000Y-77205000D02*
X208921000Y-81060000D01*
X208921000Y-83940000D02*
X208921000Y-87795000D01*
X208961000Y-77235000D02*
X208961000Y-87765000D01*
X209001000Y-77265000D02*
X209001000Y-87735000D01*
X209041000Y-77295000D02*
X209041000Y-87705000D01*
X209081000Y-77326000D02*
X209081000Y-87674000D01*
X209121000Y-77358000D02*
X209121000Y-87642000D01*
X209161000Y-77390000D02*
X209161000Y-87610000D01*
X209201000Y-77422000D02*
X209201000Y-87578000D01*
X209241000Y-77456000D02*
X209241000Y-87544000D01*
X209281000Y-77489000D02*
X209281000Y-87511000D01*
X209321000Y-77523000D02*
X209321000Y-87477000D01*
X209361000Y-77558000D02*
X209361000Y-87442000D01*
X209401000Y-77593000D02*
X209401000Y-87407000D01*
X209441000Y-77629000D02*
X209441000Y-87371000D01*
X209481000Y-77666000D02*
X209481000Y-87334000D01*
X209521000Y-77703000D02*
X209521000Y-87297000D01*
X209561000Y-77740000D02*
X209561000Y-87260000D01*
X209601000Y-77779000D02*
X209601000Y-87221000D01*
X209641000Y-77818000D02*
X209641000Y-87182000D01*
X209681000Y-77857000D02*
X209681000Y-87143000D01*
X209721000Y-77898000D02*
X209721000Y-87102000D01*
X209761000Y-77939000D02*
X209761000Y-87061000D01*
X209801000Y-77981000D02*
X209801000Y-87019000D01*
X209841000Y-78023000D02*
X209841000Y-86977000D01*
X209881000Y-78066000D02*
X209881000Y-86934000D01*
X209921000Y-78110000D02*
X209921000Y-86890000D01*
X209961000Y-78155000D02*
X209961000Y-86845000D01*
X210001000Y-78201000D02*
X210001000Y-86799000D01*
X210041000Y-78247000D02*
X210041000Y-86753000D01*
X210081000Y-78295000D02*
X210081000Y-86705000D01*
X210121000Y-78343000D02*
X210121000Y-86657000D01*
X210161000Y-78392000D02*
X210161000Y-86608000D01*
X210201000Y-78443000D02*
X210201000Y-86557000D01*
X210241000Y-78494000D02*
X210241000Y-86506000D01*
X210281000Y-78546000D02*
X210281000Y-86454000D01*
X210321000Y-78600000D02*
X210321000Y-86400000D01*
X210361000Y-78654000D02*
X210361000Y-86346000D01*
X210401000Y-78710000D02*
X210401000Y-86290000D01*
X210441000Y-78767000D02*
X210441000Y-86233000D01*
X210481000Y-78825000D02*
X210481000Y-86175000D01*
X210521000Y-78885000D02*
X210521000Y-86115000D01*
X210561000Y-78946000D02*
X210561000Y-86054000D01*
X210601000Y-79009000D02*
X210601000Y-85991000D01*
X210641000Y-79073000D02*
X210641000Y-85927000D01*
X210681000Y-79139000D02*
X210681000Y-85861000D01*
X210721000Y-79207000D02*
X210721000Y-85793000D01*
X210761000Y-79277000D02*
X210761000Y-85723000D01*
X210801000Y-79348000D02*
X210801000Y-85652000D01*
X210841000Y-79422000D02*
X210841000Y-85578000D01*
X210881000Y-79498000D02*
X210881000Y-85502000D01*
X210921000Y-79577000D02*
X210921000Y-85423000D01*
X210961000Y-79658000D02*
X210961000Y-85342000D01*
X211001000Y-79742000D02*
X211001000Y-85258000D01*
X211041000Y-79830000D02*
X211041000Y-85170000D01*
X211081000Y-79921000D02*
X211081000Y-85079000D01*
X211121000Y-80016000D02*
X211121000Y-84984000D01*
X211161000Y-80115000D02*
X211161000Y-84885000D01*
X211201000Y-80219000D02*
X211201000Y-84781000D01*
X211241000Y-80329000D02*
X211241000Y-84671000D01*
X211281000Y-80445000D02*
X211281000Y-84555000D01*
X211321000Y-80569000D02*
X211321000Y-84431000D01*
X211361000Y-80702000D02*
X211361000Y-84298000D01*
X211401000Y-80847000D02*
X211401000Y-84153000D01*
X211441000Y-81006000D02*
X211441000Y-83994000D01*
X211481000Y-81185000D02*
X211481000Y-83815000D01*
X211521000Y-81393000D02*
X211521000Y-83607000D01*
X211561000Y-81650000D02*
X211561000Y-83350000D01*
X211601000Y-82025000D02*
X211601000Y-82975000D01*
X211620000Y-82500000D02*
G75*
G02*
X198380000Y-82500000I-6620000J0D01*
G01*
X198380000Y-82500000D02*
G75*
G02*
X211620000Y-82500000I6620000J0D01*
G01*
%TD*%
M02*
