%TF.GenerationSoftware,KiCad,Pcbnew,8.0.8*%
%TF.CreationDate,2025-01-25T14:39:54+05:30*%
%TF.ProjectId,AC to DC conveter,41432074-6f20-4444-9320-636f6e766574,rev?*%
%TF.SameCoordinates,Original*%
%TF.FileFunction,Copper,L1,Top*%
%TF.FilePolarity,Positive*%
%FSLAX46Y46*%
G04 Gerber Fmt 4.6, Leading zero omitted, Abs format (unit mm)*
G04 Created by KiCad (PCBNEW 8.0.8) date 2025-01-25 14:39:54*
%MOMM*%
%LPD*%
G01*
G04 APERTURE LIST*
%TA.AperFunction,NonConductor*%
%ADD10C,0.200000*%
%TD*%
%TA.AperFunction,ComponentPad*%
%ADD11C,1.400000*%
%TD*%
%TA.AperFunction,ComponentPad*%
%ADD12O,1.400000X1.400000*%
%TD*%
%TA.AperFunction,ComponentPad*%
%ADD13R,3.000000X3.000000*%
%TD*%
%TA.AperFunction,ComponentPad*%
%ADD14C,3.000000*%
%TD*%
%TA.AperFunction,ComponentPad*%
%ADD15R,1.800000X1.800000*%
%TD*%
%TA.AperFunction,ComponentPad*%
%ADD16C,1.800000*%
%TD*%
%TA.AperFunction,ComponentPad*%
%ADD17R,2.200000X2.200000*%
%TD*%
%TA.AperFunction,ComponentPad*%
%ADD18O,2.200000X2.200000*%
%TD*%
%TA.AperFunction,ComponentPad*%
%ADD19R,2.400000X2.400000*%
%TD*%
%TA.AperFunction,ComponentPad*%
%ADD20C,2.400000*%
%TD*%
%TA.AperFunction,Conductor*%
%ADD21C,0.200000*%
%TD*%
G04 APERTURE END LIST*
D10*
X176500000Y-50000000D02*
G75*
G02*
X173500000Y-50000000I-1500000J0D01*
G01*
X173500000Y-50000000D02*
G75*
G02*
X176500000Y-50000000I1500000J0D01*
G01*
X176500000Y-89500000D02*
G75*
G02*
X173500000Y-89500000I-1500000J0D01*
G01*
X173500000Y-89500000D02*
G75*
G02*
X176500000Y-89500000I1500000J0D01*
G01*
X214500000Y-89500000D02*
G75*
G02*
X211500000Y-89500000I-1500000J0D01*
G01*
X211500000Y-89500000D02*
G75*
G02*
X214500000Y-89500000I1500000J0D01*
G01*
X214500000Y-50000000D02*
G75*
G02*
X211500000Y-50000000I-1500000J0D01*
G01*
X211500000Y-50000000D02*
G75*
G02*
X214500000Y-50000000I1500000J0D01*
G01*
X173000000Y-48000000D02*
X215000000Y-48000000D01*
X215000000Y-91500000D01*
X173000000Y-91500000D01*
X173000000Y-48000000D01*
D11*
%TO.P,R2,1*%
%TO.N,/+ve*%
X191650000Y-79040000D03*
D12*
%TO.P,R2,2*%
%TO.N,Net-(D5-A)*%
X191650000Y-73960000D03*
%TD*%
D11*
%TO.P,R1,1*%
%TO.N,/+ve*%
X188500000Y-79040000D03*
D12*
%TO.P,R1,2*%
%TO.N,GND*%
X188500000Y-73960000D03*
%TD*%
D13*
%TO.P,J2,1,Pin_1*%
%TO.N,Net-(D3-A)*%
X178500000Y-77080000D03*
D14*
%TO.P,J2,2,Pin_2*%
%TO.N,Net-(D1-A)*%
X178500000Y-72000000D03*
%TO.P,J2,3*%
%TO.N,N/C*%
X178500000Y-66920000D03*
%TD*%
D13*
%TO.P,J1,1,Pin_1*%
%TO.N,/+ve*%
X190500000Y-66580000D03*
D14*
%TO.P,J1,2,Pin_2*%
%TO.N,GND*%
X190500000Y-61500000D03*
%TO.P,J1,3*%
%TO.N,N/C*%
X190500000Y-56420000D03*
%TD*%
D15*
%TO.P,D5,1,K*%
%TO.N,GND*%
X191000000Y-82500000D03*
D16*
%TO.P,D5,2,A*%
%TO.N,Net-(D5-A)*%
X191000000Y-85040000D03*
%TD*%
D17*
%TO.P,D4,1,K*%
%TO.N,Net-(D3-A)*%
X200500000Y-71500000D03*
D18*
%TO.P,D4,2,A*%
%TO.N,GND*%
X210660000Y-71500000D03*
%TD*%
D17*
%TO.P,D3,1,K*%
%TO.N,/+ve*%
X200500000Y-67000000D03*
D18*
%TO.P,D3,2,A*%
%TO.N,Net-(D3-A)*%
X210660000Y-67000000D03*
%TD*%
D17*
%TO.P,D2,1,K*%
%TO.N,Net-(D1-A)*%
X200420000Y-62500000D03*
D18*
%TO.P,D2,2,A*%
%TO.N,GND*%
X210580000Y-62500000D03*
%TD*%
D17*
%TO.P,D1,1,K*%
%TO.N,/+ve*%
X200420000Y-58000000D03*
D18*
%TO.P,D1,2,A*%
%TO.N,Net-(D1-A)*%
X210580000Y-58000000D03*
%TD*%
D19*
%TO.P,C1,1*%
%TO.N,/+ve*%
X202500000Y-82500000D03*
D20*
%TO.P,C1,2*%
%TO.N,GND*%
X207500000Y-82500000D03*
%TD*%
D21*
%TO.N,Net-(D5-A)*%
X193000000Y-75310000D02*
X191650000Y-73960000D01*
X191960000Y-85040000D02*
X193000000Y-84000000D01*
X193000000Y-84000000D02*
X193000000Y-75310000D01*
X191000000Y-85040000D02*
X191960000Y-85040000D01*
%TO.N,GND*%
X212000000Y-61080000D02*
X210580000Y-62500000D01*
X212000000Y-57440101D02*
X212000000Y-61080000D01*
X206059899Y-51500000D02*
X212000000Y-57440101D01*
X200500000Y-51500000D02*
X206059899Y-51500000D01*
X190500000Y-61500000D02*
X200500000Y-51500000D01*
%TO.N,Net-(D1-A)*%
X185720000Y-64780000D02*
X198140000Y-64780000D01*
X178500000Y-72000000D02*
X185720000Y-64780000D01*
X198140000Y-64780000D02*
X200420000Y-62500000D01*
%TO.N,GND*%
X199100000Y-72900000D02*
X209260000Y-72900000D01*
X200700000Y-68500000D02*
X199100000Y-70100000D01*
X209260000Y-72900000D02*
X210660000Y-71500000D01*
X204580000Y-68500000D02*
X200700000Y-68500000D01*
X210580000Y-62500000D02*
X204580000Y-68500000D01*
X199100000Y-70100000D02*
X199100000Y-72900000D01*
%TO.N,Net-(D1-A)*%
X200420000Y-62500000D02*
X206080000Y-62500000D01*
X206080000Y-62500000D02*
X210580000Y-58000000D01*
%TO.N,/+ve*%
X190920000Y-67000000D02*
X190500000Y-66580000D01*
X200500000Y-67000000D02*
X190920000Y-67000000D01*
X190650000Y-78040000D02*
X191650000Y-79040000D01*
X190650000Y-73545786D02*
X190650000Y-78040000D01*
X197195786Y-67000000D02*
X190650000Y-73545786D01*
X200500000Y-67000000D02*
X197195786Y-67000000D01*
%TO.N,Net-(D3-A)*%
X200500000Y-71500000D02*
X206160000Y-71500000D01*
X206160000Y-71500000D02*
X210660000Y-67000000D01*
X202000000Y-70000000D02*
X200500000Y-71500000D01*
X211139899Y-70000000D02*
X202000000Y-70000000D01*
X212060000Y-70920101D02*
X211139899Y-70000000D01*
X212060000Y-80440000D02*
X212060000Y-70920101D01*
X203600000Y-88900000D02*
X212060000Y-80440000D01*
X189637257Y-88900000D02*
X203600000Y-88900000D01*
X178500000Y-77762743D02*
X189637257Y-88900000D01*
X178500000Y-77080000D02*
X178500000Y-77762743D01*
%TO.N,GND*%
X190000000Y-75460000D02*
X188500000Y-73960000D01*
X190000000Y-84460000D02*
X190000000Y-75460000D01*
%TO.N,/+ve*%
X192500000Y-72500000D02*
X202500000Y-82500000D01*
X188545786Y-72500000D02*
X192500000Y-72500000D01*
X186500000Y-77040000D02*
X186500000Y-74545786D01*
X186500000Y-74545786D02*
X188545786Y-72500000D01*
X188500000Y-79040000D02*
X186500000Y-77040000D01*
%TO.N,GND*%
X210660000Y-79340000D02*
X210660000Y-71500000D01*
X207500000Y-82500000D02*
X210660000Y-79340000D01*
X201500000Y-88500000D02*
X207500000Y-82500000D01*
X189802943Y-88500000D02*
X201500000Y-88500000D01*
X188800000Y-85660000D02*
X188800000Y-87497057D01*
X190000000Y-84460000D02*
X188800000Y-85660000D01*
X188800000Y-87497057D02*
X189802943Y-88500000D01*
%TD*%
%TA.AperFunction,Conductor*%
%TO.N,GND*%
G36*
X211244519Y-48620185D02*
G01*
X211290274Y-48672989D01*
X211300218Y-48742147D01*
X211278784Y-48796008D01*
X211201103Y-48906056D01*
X211201099Y-48906062D01*
X211068894Y-49161206D01*
X210972667Y-49431962D01*
X210972666Y-49431965D01*
X210914201Y-49713319D01*
X210894592Y-50000000D01*
X210914201Y-50286680D01*
X210914201Y-50286684D01*
X210914202Y-50286686D01*
X210933000Y-50377147D01*
X210972666Y-50568034D01*
X210972667Y-50568037D01*
X211068894Y-50838793D01*
X211068893Y-50838793D01*
X211201098Y-51093935D01*
X211366812Y-51328700D01*
X211451923Y-51419831D01*
X211562947Y-51538708D01*
X211785853Y-51720055D01*
X211963151Y-51827873D01*
X212031382Y-51869365D01*
X212218237Y-51950526D01*
X212294942Y-51983844D01*
X212571642Y-52061371D01*
X212821920Y-52095771D01*
X212856321Y-52100500D01*
X212856322Y-52100500D01*
X213143679Y-52100500D01*
X213174370Y-52096281D01*
X213428358Y-52061371D01*
X213705058Y-51983844D01*
X213818015Y-51934779D01*
X213968617Y-51869365D01*
X213968620Y-51869363D01*
X213968625Y-51869361D01*
X214211072Y-51721924D01*
X214278579Y-51703911D01*
X214345109Y-51725254D01*
X214389539Y-51779178D01*
X214399500Y-51827873D01*
X214399500Y-87672126D01*
X214379815Y-87739165D01*
X214327011Y-87784920D01*
X214257853Y-87794864D01*
X214211072Y-87778074D01*
X213968623Y-87630637D01*
X213968618Y-87630635D01*
X213705063Y-87516158D01*
X213705061Y-87516157D01*
X213705058Y-87516156D01*
X213575578Y-87479877D01*
X213428364Y-87438630D01*
X213428359Y-87438629D01*
X213428358Y-87438629D01*
X213286018Y-87419064D01*
X213143679Y-87399500D01*
X213143678Y-87399500D01*
X212856322Y-87399500D01*
X212856321Y-87399500D01*
X212571642Y-87438629D01*
X212571635Y-87438630D01*
X212363861Y-87496845D01*
X212294942Y-87516156D01*
X212294939Y-87516156D01*
X212294936Y-87516158D01*
X212294935Y-87516158D01*
X212031382Y-87630634D01*
X211785853Y-87779944D01*
X211562950Y-87961289D01*
X211366812Y-88171299D01*
X211201098Y-88406064D01*
X211068894Y-88661206D01*
X210972667Y-88931962D01*
X210972666Y-88931965D01*
X210914201Y-89213319D01*
X210894592Y-89500000D01*
X210914201Y-89786680D01*
X210914201Y-89786684D01*
X210914202Y-89786686D01*
X210933000Y-89877147D01*
X210972666Y-90068034D01*
X210972667Y-90068037D01*
X211068894Y-90338793D01*
X211068893Y-90338793D01*
X211201099Y-90593937D01*
X211201103Y-90593943D01*
X211278784Y-90703992D01*
X211301363Y-90770113D01*
X211284609Y-90837944D01*
X211233843Y-90885950D01*
X211177480Y-90899500D01*
X176822520Y-90899500D01*
X176755481Y-90879815D01*
X176709726Y-90827011D01*
X176699782Y-90757853D01*
X176721216Y-90703992D01*
X176798896Y-90593943D01*
X176798900Y-90593937D01*
X176798901Y-90593936D01*
X176931104Y-90338797D01*
X177027334Y-90068032D01*
X177085798Y-89786686D01*
X177105408Y-89500000D01*
X177085798Y-89213314D01*
X177027334Y-88931968D01*
X176931105Y-88661206D01*
X176931106Y-88661206D01*
X176798901Y-88406064D01*
X176633187Y-88171299D01*
X176554554Y-88087105D01*
X176437053Y-87961292D01*
X176308452Y-87856667D01*
X176214146Y-87779944D01*
X175968617Y-87630634D01*
X175705063Y-87516158D01*
X175705061Y-87516157D01*
X175705058Y-87516156D01*
X175575578Y-87479877D01*
X175428364Y-87438630D01*
X175428359Y-87438629D01*
X175428358Y-87438629D01*
X175286018Y-87419064D01*
X175143679Y-87399500D01*
X175143678Y-87399500D01*
X174856322Y-87399500D01*
X174856321Y-87399500D01*
X174571642Y-87438629D01*
X174571635Y-87438630D01*
X174363861Y-87496845D01*
X174294942Y-87516156D01*
X174294939Y-87516156D01*
X174294936Y-87516158D01*
X174294935Y-87516158D01*
X174031381Y-87630635D01*
X174031376Y-87630637D01*
X173788928Y-87778074D01*
X173721421Y-87796088D01*
X173654891Y-87774745D01*
X173610461Y-87720821D01*
X173600500Y-87672126D01*
X173600500Y-75532135D01*
X176499500Y-75532135D01*
X176499500Y-78627870D01*
X176499501Y-78627876D01*
X176505908Y-78687483D01*
X176556202Y-78822328D01*
X176556206Y-78822335D01*
X176642452Y-78937544D01*
X176642455Y-78937547D01*
X176757664Y-79023793D01*
X176757671Y-79023797D01*
X176892517Y-79074091D01*
X176892516Y-79074091D01*
X176899444Y-79074835D01*
X176952127Y-79080500D01*
X178917159Y-79080499D01*
X178984198Y-79100184D01*
X179004840Y-79116818D01*
X189152396Y-89264374D01*
X189152406Y-89264385D01*
X189156736Y-89268715D01*
X189156737Y-89268716D01*
X189268541Y-89380520D01*
X189355352Y-89430639D01*
X189355354Y-89430641D01*
X189393408Y-89452611D01*
X189405472Y-89459577D01*
X189558200Y-89500501D01*
X189558203Y-89500501D01*
X189723910Y-89500501D01*
X189723926Y-89500500D01*
X203513331Y-89500500D01*
X203513347Y-89500501D01*
X203520943Y-89500501D01*
X203679054Y-89500501D01*
X203679057Y-89500501D01*
X203831785Y-89459577D01*
X203881904Y-89430639D01*
X203968716Y-89380520D01*
X204080520Y-89268716D01*
X204080520Y-89268714D01*
X204090728Y-89258507D01*
X204090729Y-89258504D01*
X212540520Y-80808716D01*
X212619577Y-80671784D01*
X212660501Y-80519057D01*
X212660501Y-80360942D01*
X212660501Y-80353347D01*
X212660500Y-80353329D01*
X212660500Y-70841046D01*
X212660499Y-70841042D01*
X212633292Y-70739498D01*
X212633292Y-70739497D01*
X212619578Y-70688319D01*
X212619577Y-70688316D01*
X212570512Y-70603334D01*
X212568876Y-70600500D01*
X212540520Y-70551385D01*
X212428716Y-70439581D01*
X212428715Y-70439580D01*
X212424385Y-70435250D01*
X212424374Y-70435240D01*
X211627489Y-69638355D01*
X211627487Y-69638352D01*
X211508616Y-69519481D01*
X211508615Y-69519480D01*
X211421803Y-69469360D01*
X211421803Y-69469359D01*
X211421799Y-69469358D01*
X211371684Y-69440423D01*
X211218956Y-69399499D01*
X211060842Y-69399499D01*
X211053246Y-69399499D01*
X211053230Y-69399500D01*
X209409097Y-69399500D01*
X209342058Y-69379815D01*
X209296303Y-69327011D01*
X209286359Y-69257853D01*
X209315384Y-69194297D01*
X209321416Y-69187819D01*
X209764870Y-68744364D01*
X209976944Y-68532289D01*
X210038265Y-68498806D01*
X210107956Y-68503790D01*
X210112031Y-68505393D01*
X210163889Y-68526873D01*
X210408852Y-68585683D01*
X210660000Y-68605449D01*
X210911148Y-68585683D01*
X211156111Y-68526873D01*
X211388859Y-68430466D01*
X211603659Y-68298836D01*
X211795224Y-68135224D01*
X211958836Y-67943659D01*
X212090466Y-67728859D01*
X212186873Y-67496111D01*
X212245683Y-67251148D01*
X212265449Y-67000000D01*
X212245683Y-66748852D01*
X212186873Y-66503889D01*
X212125186Y-66354962D01*
X212090466Y-66271140D01*
X211958839Y-66056346D01*
X211958838Y-66056343D01*
X211921875Y-66013066D01*
X211795224Y-65864776D01*
X211668571Y-65756604D01*
X211603656Y-65701161D01*
X211603653Y-65701160D01*
X211388859Y-65569533D01*
X211156110Y-65473126D01*
X210911151Y-65414317D01*
X210660000Y-65394551D01*
X210408848Y-65414317D01*
X210163889Y-65473126D01*
X209931140Y-65569533D01*
X209716346Y-65701160D01*
X209716343Y-65701161D01*
X209524776Y-65864776D01*
X209361161Y-66056343D01*
X209361160Y-66056346D01*
X209229533Y-66271140D01*
X209133126Y-66503889D01*
X209074317Y-66748848D01*
X209054551Y-67000000D01*
X209074317Y-67251151D01*
X209133127Y-67496112D01*
X209133127Y-67496114D01*
X209154587Y-67547923D01*
X209162056Y-67617393D01*
X209130780Y-67679872D01*
X209127707Y-67683056D01*
X207447584Y-69363181D01*
X207386261Y-69396666D01*
X207359903Y-69399500D01*
X201920940Y-69399500D01*
X201880019Y-69410464D01*
X201880019Y-69410465D01*
X201842751Y-69420451D01*
X201768214Y-69440423D01*
X201768209Y-69440426D01*
X201631290Y-69519475D01*
X201631282Y-69519481D01*
X201519478Y-69631286D01*
X201287582Y-69863181D01*
X201226259Y-69896666D01*
X201199901Y-69899500D01*
X199352129Y-69899500D01*
X199352123Y-69899501D01*
X199292516Y-69905908D01*
X199157671Y-69956202D01*
X199157664Y-69956206D01*
X199042455Y-70042452D01*
X199042452Y-70042455D01*
X198956206Y-70157664D01*
X198956202Y-70157671D01*
X198905908Y-70292517D01*
X198899501Y-70352116D01*
X198899500Y-70352135D01*
X198899500Y-72647870D01*
X198899501Y-72647876D01*
X198905908Y-72707483D01*
X198956202Y-72842328D01*
X198956206Y-72842335D01*
X199042452Y-72957544D01*
X199042455Y-72957547D01*
X199157664Y-73043793D01*
X199157671Y-73043797D01*
X199292517Y-73094091D01*
X199292516Y-73094091D01*
X199299444Y-73094835D01*
X199352127Y-73100500D01*
X201647872Y-73100499D01*
X201707483Y-73094091D01*
X201842331Y-73043796D01*
X201957546Y-72957546D01*
X202043796Y-72842331D01*
X202094091Y-72707483D01*
X202100500Y-72647873D01*
X202100500Y-72224500D01*
X202120185Y-72157461D01*
X202172989Y-72111706D01*
X202224500Y-72100500D01*
X206073331Y-72100500D01*
X206073347Y-72100501D01*
X206080943Y-72100501D01*
X206239054Y-72100501D01*
X206239057Y-72100501D01*
X206391785Y-72059577D01*
X206461233Y-72019481D01*
X206528716Y-71980520D01*
X206640520Y-71868716D01*
X206640520Y-71868714D01*
X206650724Y-71858511D01*
X206650727Y-71858506D01*
X207872416Y-70636819D01*
X207933739Y-70603334D01*
X207960097Y-70600500D01*
X209115178Y-70600500D01*
X209182217Y-70620185D01*
X209227972Y-70672989D01*
X209237916Y-70742147D01*
X209229739Y-70771953D01*
X209133603Y-71004043D01*
X209074811Y-71248932D01*
X209074728Y-71249999D01*
X209074729Y-71250000D01*
X210169252Y-71250000D01*
X210147482Y-71287708D01*
X210110000Y-71427591D01*
X210110000Y-71572409D01*
X210147482Y-71712292D01*
X210169252Y-71750000D01*
X209074728Y-71750000D01*
X209074811Y-71751067D01*
X209133603Y-71995956D01*
X209229980Y-72228631D01*
X209361568Y-72443362D01*
X209361571Y-72443367D01*
X209525130Y-72634869D01*
X209716632Y-72798428D01*
X209716637Y-72798431D01*
X209931368Y-72930019D01*
X210164043Y-73026396D01*
X210408932Y-73085188D01*
X210410000Y-73085271D01*
X210410000Y-71990747D01*
X210447708Y-72012518D01*
X210587591Y-72050000D01*
X210732409Y-72050000D01*
X210872292Y-72012518D01*
X210910000Y-71990747D01*
X210910000Y-73085271D01*
X210911067Y-73085188D01*
X211155956Y-73026396D01*
X211288047Y-72971682D01*
X211357516Y-72964213D01*
X211419995Y-72995488D01*
X211455648Y-73055576D01*
X211459500Y-73086243D01*
X211459500Y-80139902D01*
X211439815Y-80206941D01*
X211423181Y-80227583D01*
X209385092Y-82265671D01*
X209323769Y-82299156D01*
X209254077Y-82294172D01*
X209198144Y-82252300D01*
X209176520Y-82205582D01*
X209129032Y-81997524D01*
X209129026Y-81997505D01*
X209035941Y-81760328D01*
X209035942Y-81760328D01*
X208908544Y-81539671D01*
X208866545Y-81487005D01*
X208064612Y-82288940D01*
X208059111Y-82268409D01*
X207980119Y-82131592D01*
X207868408Y-82019881D01*
X207731591Y-81940889D01*
X207711058Y-81935387D01*
X208513185Y-81133261D01*
X208352377Y-81023624D01*
X208352376Y-81023623D01*
X208122823Y-80913078D01*
X208122825Y-80913078D01*
X207879347Y-80837975D01*
X207879341Y-80837973D01*
X207627404Y-80800000D01*
X207372595Y-80800000D01*
X207120658Y-80837973D01*
X207120652Y-80837975D01*
X206877175Y-80913078D01*
X206647624Y-81023623D01*
X206647616Y-81023628D01*
X206486813Y-81133261D01*
X207288940Y-81935387D01*
X207268409Y-81940889D01*
X207131592Y-82019881D01*
X207019881Y-82131592D01*
X206940889Y-82268409D01*
X206935387Y-82288940D01*
X206133453Y-81487006D01*
X206091455Y-81539670D01*
X205964058Y-81760328D01*
X205870973Y-81997505D01*
X205870968Y-81997522D01*
X205814273Y-82245920D01*
X205795233Y-82499995D01*
X205795233Y-82500000D01*
X205814273Y-82754079D01*
X205870968Y-83002477D01*
X205870973Y-83002494D01*
X205964058Y-83239671D01*
X205964057Y-83239671D01*
X206091457Y-83460332D01*
X206133452Y-83512993D01*
X206935387Y-82711058D01*
X206940889Y-82731591D01*
X207019881Y-82868408D01*
X207131592Y-82980119D01*
X207268409Y-83059111D01*
X207288940Y-83064612D01*
X206486813Y-83866737D01*
X206647623Y-83976375D01*
X206647624Y-83976376D01*
X206877176Y-84086921D01*
X206877174Y-84086921D01*
X207120652Y-84162024D01*
X207120658Y-84162026D01*
X207197638Y-84173629D01*
X207260995Y-84203085D01*
X207298369Y-84262119D01*
X207297894Y-84331987D01*
X207266838Y-84383925D01*
X203387584Y-88263181D01*
X203326261Y-88296666D01*
X203299903Y-88299500D01*
X189937354Y-88299500D01*
X189870315Y-88279815D01*
X189849673Y-88263181D01*
X180490644Y-78904152D01*
X180457159Y-78842829D01*
X180462142Y-78773140D01*
X180494091Y-78687483D01*
X180500500Y-78627873D01*
X180500499Y-75532128D01*
X180494091Y-75472517D01*
X180443796Y-75337669D01*
X180443795Y-75337668D01*
X180443793Y-75337664D01*
X180357547Y-75222455D01*
X180357544Y-75222452D01*
X180242335Y-75136206D01*
X180242328Y-75136202D01*
X180107482Y-75085908D01*
X180107483Y-75085908D01*
X180047883Y-75079501D01*
X180047881Y-75079500D01*
X180047873Y-75079500D01*
X180047864Y-75079500D01*
X176952129Y-75079500D01*
X176952123Y-75079501D01*
X176892516Y-75085908D01*
X176757671Y-75136202D01*
X176757664Y-75136206D01*
X176642455Y-75222452D01*
X176642452Y-75222455D01*
X176556206Y-75337664D01*
X176556202Y-75337671D01*
X176505908Y-75472517D01*
X176500544Y-75522416D01*
X176499501Y-75532123D01*
X176499500Y-75532135D01*
X173600500Y-75532135D01*
X173600500Y-71999998D01*
X176494390Y-71999998D01*
X176494390Y-72000001D01*
X176514804Y-72285433D01*
X176575628Y-72565037D01*
X176575630Y-72565043D01*
X176575631Y-72565046D01*
X176675633Y-72833161D01*
X176675635Y-72833166D01*
X176812770Y-73084309D01*
X176812775Y-73084317D01*
X176984254Y-73313387D01*
X176984270Y-73313405D01*
X177186594Y-73515729D01*
X177186612Y-73515745D01*
X177415682Y-73687224D01*
X177415690Y-73687229D01*
X177666833Y-73824364D01*
X177666832Y-73824364D01*
X177666836Y-73824365D01*
X177666839Y-73824367D01*
X177934954Y-73924369D01*
X177934960Y-73924370D01*
X177934962Y-73924371D01*
X178214566Y-73985195D01*
X178214568Y-73985195D01*
X178214572Y-73985196D01*
X178468220Y-74003337D01*
X178499999Y-74005610D01*
X178500000Y-74005610D01*
X178500001Y-74005610D01*
X178528595Y-74003564D01*
X178785428Y-73985196D01*
X178849740Y-73971206D01*
X179065037Y-73924371D01*
X179065037Y-73924370D01*
X179065046Y-73924369D01*
X179333161Y-73824367D01*
X179584315Y-73687226D01*
X179813395Y-73515739D01*
X180015739Y-73313395D01*
X180187226Y-73084315D01*
X180324367Y-72833161D01*
X180424369Y-72565046D01*
X180485196Y-72285428D01*
X180505610Y-72000000D01*
X180485196Y-71714572D01*
X180465493Y-71624000D01*
X180424371Y-71434962D01*
X180424370Y-71434960D01*
X180424369Y-71434954D01*
X180324367Y-71166839D01*
X180318709Y-71156478D01*
X180303858Y-71088208D01*
X180328275Y-71022743D01*
X180339854Y-71009379D01*
X185932416Y-65416819D01*
X185993739Y-65383334D01*
X186020097Y-65380500D01*
X188375500Y-65380500D01*
X188442539Y-65400185D01*
X188488294Y-65452989D01*
X188499500Y-65504500D01*
X188499500Y-68127870D01*
X188499501Y-68127876D01*
X188505908Y-68187483D01*
X188556202Y-68322328D01*
X188556206Y-68322335D01*
X188642452Y-68437544D01*
X188642455Y-68437547D01*
X188757664Y-68523793D01*
X188757671Y-68523797D01*
X188892517Y-68574091D01*
X188892516Y-68574091D01*
X188899444Y-68574835D01*
X188952127Y-68580500D01*
X192047872Y-68580499D01*
X192107483Y-68574091D01*
X192242331Y-68523796D01*
X192357546Y-68437546D01*
X192443796Y-68322331D01*
X192494091Y-68187483D01*
X192500500Y-68127873D01*
X192500500Y-67724500D01*
X192520185Y-67657461D01*
X192572989Y-67611706D01*
X192624500Y-67600500D01*
X195446689Y-67600500D01*
X195513728Y-67620185D01*
X195559483Y-67672989D01*
X195569427Y-67742147D01*
X195540402Y-67805703D01*
X195534370Y-67812181D01*
X191483370Y-71863181D01*
X191422047Y-71896666D01*
X191395689Y-71899500D01*
X188624843Y-71899500D01*
X188466728Y-71899500D01*
X188314001Y-71940423D01*
X188314000Y-71940423D01*
X188313998Y-71940424D01*
X188313995Y-71940425D01*
X188263882Y-71969359D01*
X188263881Y-71969360D01*
X188220475Y-71994420D01*
X188177071Y-72019479D01*
X188177070Y-72019480D01*
X186019481Y-74177068D01*
X186019479Y-74177071D01*
X186005976Y-74200460D01*
X185971165Y-74260756D01*
X185969361Y-74263880D01*
X185969359Y-74263882D01*
X185940425Y-74313995D01*
X185940424Y-74313996D01*
X185940423Y-74314001D01*
X185899499Y-74466729D01*
X185899499Y-74466731D01*
X185899499Y-74634832D01*
X185899500Y-74634845D01*
X185899500Y-76953330D01*
X185899499Y-76953348D01*
X185899499Y-77119054D01*
X185899498Y-77119054D01*
X185940424Y-77271788D01*
X185946448Y-77282221D01*
X185946450Y-77282224D01*
X186019477Y-77408712D01*
X186019481Y-77408717D01*
X186138349Y-77527585D01*
X186138355Y-77527590D01*
X187288685Y-78677920D01*
X187322170Y-78739243D01*
X187320271Y-78799532D01*
X187314885Y-78818462D01*
X187294357Y-79039999D01*
X187294357Y-79040000D01*
X187314884Y-79261535D01*
X187314885Y-79261537D01*
X187375769Y-79475523D01*
X187375775Y-79475538D01*
X187474938Y-79674683D01*
X187474943Y-79674691D01*
X187609020Y-79852238D01*
X187773437Y-80002123D01*
X187773439Y-80002125D01*
X187962595Y-80119245D01*
X187962596Y-80119245D01*
X187962599Y-80119247D01*
X188170060Y-80199618D01*
X188388757Y-80240500D01*
X188388759Y-80240500D01*
X188611241Y-80240500D01*
X188611243Y-80240500D01*
X188829940Y-80199618D01*
X189037401Y-80119247D01*
X189226562Y-80002124D01*
X189390981Y-79852236D01*
X189525058Y-79674689D01*
X189624229Y-79475528D01*
X189685115Y-79261536D01*
X189705643Y-79040000D01*
X189696149Y-78937547D01*
X189685115Y-78818464D01*
X189685114Y-78818462D01*
X189662574Y-78739243D01*
X189624229Y-78604472D01*
X189624224Y-78604461D01*
X189525061Y-78405316D01*
X189525056Y-78405308D01*
X189390979Y-78227761D01*
X189226562Y-78077876D01*
X189226560Y-78077874D01*
X189037404Y-77960754D01*
X189037398Y-77960752D01*
X188829940Y-77880382D01*
X188611243Y-77839500D01*
X188388757Y-77839500D01*
X188318734Y-77852589D01*
X188250783Y-77865291D01*
X188181268Y-77858259D01*
X188140318Y-77831083D01*
X187136819Y-76827584D01*
X187103334Y-76766261D01*
X187100500Y-76739903D01*
X187100500Y-74845882D01*
X187120185Y-74778843D01*
X187136814Y-74758206D01*
X187299412Y-74595608D01*
X187360733Y-74562125D01*
X187430425Y-74567109D01*
X187486045Y-74608564D01*
X187609391Y-74771899D01*
X187773738Y-74921721D01*
X187962820Y-75038797D01*
X187962822Y-75038798D01*
X188170195Y-75119135D01*
X188250000Y-75134052D01*
X188750000Y-75134052D01*
X188829804Y-75119135D01*
X189037177Y-75038798D01*
X189037179Y-75038797D01*
X189226261Y-74921721D01*
X189390608Y-74771900D01*
X189524631Y-74594425D01*
X189623760Y-74395349D01*
X189676495Y-74210000D01*
X188750000Y-74210000D01*
X188750000Y-75134052D01*
X188250000Y-75134052D01*
X188250000Y-74204975D01*
X188285095Y-74240070D01*
X188364905Y-74286148D01*
X188453922Y-74310000D01*
X188546078Y-74310000D01*
X188635095Y-74286148D01*
X188714905Y-74240070D01*
X188780070Y-74174905D01*
X188826148Y-74095095D01*
X188850000Y-74006078D01*
X188850000Y-73913922D01*
X188826148Y-73824905D01*
X188780070Y-73745095D01*
X188744975Y-73710000D01*
X189676495Y-73710000D01*
X189623760Y-73524650D01*
X189524631Y-73325574D01*
X189504735Y-73299227D01*
X189480043Y-73233866D01*
X189494608Y-73165531D01*
X189543805Y-73115918D01*
X189603689Y-73100500D01*
X189998914Y-73100500D01*
X190065953Y-73120185D01*
X190111708Y-73172989D01*
X190121652Y-73242147D01*
X190106300Y-73286502D01*
X190090424Y-73313998D01*
X190090423Y-73314000D01*
X190090423Y-73314001D01*
X190049499Y-73466729D01*
X190049499Y-73466731D01*
X190049499Y-73634832D01*
X190049500Y-73634845D01*
X190049500Y-77953330D01*
X190049499Y-77953348D01*
X190049499Y-78119054D01*
X190049498Y-78119054D01*
X190090423Y-78271787D01*
X190098802Y-78286298D01*
X190098801Y-78286298D01*
X190098803Y-78286300D01*
X190169475Y-78408709D01*
X190169481Y-78408717D01*
X190288349Y-78527585D01*
X190288355Y-78527590D01*
X190438685Y-78677920D01*
X190472170Y-78739243D01*
X190470271Y-78799532D01*
X190464885Y-78818462D01*
X190444357Y-79039999D01*
X190444357Y-79040000D01*
X190464884Y-79261535D01*
X190464885Y-79261537D01*
X190525769Y-79475523D01*
X190525775Y-79475538D01*
X190624938Y-79674683D01*
X190624943Y-79674691D01*
X190759020Y-79852238D01*
X190923437Y-80002123D01*
X190923439Y-80002125D01*
X191112595Y-80119245D01*
X191112596Y-80119245D01*
X191112599Y-80119247D01*
X191320060Y-80199618D01*
X191538757Y-80240500D01*
X191538759Y-80240500D01*
X191761241Y-80240500D01*
X191761243Y-80240500D01*
X191979940Y-80199618D01*
X192187401Y-80119247D01*
X192210222Y-80105116D01*
X192277582Y-80086560D01*
X192344281Y-80107368D01*
X192389143Y-80160933D01*
X192399500Y-80210543D01*
X192399500Y-81101622D01*
X192379815Y-81168661D01*
X192327011Y-81214416D01*
X192257853Y-81224360D01*
X192201189Y-81200889D01*
X192142089Y-81156647D01*
X192142086Y-81156645D01*
X192007379Y-81106403D01*
X192007372Y-81106401D01*
X191947844Y-81100000D01*
X191250000Y-81100000D01*
X191250000Y-82124722D01*
X191173694Y-82080667D01*
X191059244Y-82050000D01*
X190940756Y-82050000D01*
X190826306Y-82080667D01*
X190750000Y-82124722D01*
X190750000Y-81100000D01*
X190052155Y-81100000D01*
X189992627Y-81106401D01*
X189992620Y-81106403D01*
X189857913Y-81156645D01*
X189857906Y-81156649D01*
X189742812Y-81242809D01*
X189742809Y-81242812D01*
X189656649Y-81357906D01*
X189656645Y-81357913D01*
X189606403Y-81492620D01*
X189606401Y-81492627D01*
X189600000Y-81552155D01*
X189600000Y-82250000D01*
X190624722Y-82250000D01*
X190580667Y-82326306D01*
X190550000Y-82440756D01*
X190550000Y-82559244D01*
X190580667Y-82673694D01*
X190624722Y-82750000D01*
X189600000Y-82750000D01*
X189600000Y-83447844D01*
X189606401Y-83507372D01*
X189606403Y-83507379D01*
X189656645Y-83642086D01*
X189656649Y-83642093D01*
X189742809Y-83757187D01*
X189742812Y-83757190D01*
X189857906Y-83843350D01*
X189857913Y-83843354D01*
X189938270Y-83873325D01*
X189994204Y-83915196D01*
X190018621Y-83980660D01*
X190003770Y-84048933D01*
X189986168Y-84073489D01*
X189948295Y-84114629D01*
X189891021Y-84176847D01*
X189891019Y-84176848D01*
X189891016Y-84176853D01*
X189764075Y-84371151D01*
X189670842Y-84583699D01*
X189613866Y-84808691D01*
X189613864Y-84808702D01*
X189594700Y-85039993D01*
X189594700Y-85040006D01*
X189613864Y-85271297D01*
X189613866Y-85271308D01*
X189670842Y-85496300D01*
X189764075Y-85708848D01*
X189891016Y-85903147D01*
X189891019Y-85903151D01*
X189891021Y-85903153D01*
X190048216Y-86073913D01*
X190048219Y-86073915D01*
X190048222Y-86073918D01*
X190231365Y-86216464D01*
X190231371Y-86216468D01*
X190231374Y-86216470D01*
X190435497Y-86326936D01*
X190549487Y-86366068D01*
X190655015Y-86402297D01*
X190655017Y-86402297D01*
X190655019Y-86402298D01*
X190883951Y-86440500D01*
X190883952Y-86440500D01*
X191116048Y-86440500D01*
X191116049Y-86440500D01*
X191344981Y-86402298D01*
X191564503Y-86326936D01*
X191768626Y-86216470D01*
X191951784Y-86073913D01*
X192108979Y-85903153D01*
X192235924Y-85708849D01*
X192301200Y-85560032D01*
X192327075Y-85522161D01*
X192352936Y-85496300D01*
X192440520Y-85408716D01*
X192440520Y-85408714D01*
X192450724Y-85398511D01*
X192450728Y-85398506D01*
X193368713Y-84480521D01*
X193368716Y-84480520D01*
X193480520Y-84368716D01*
X193530639Y-84281904D01*
X193559577Y-84231785D01*
X193600500Y-84079057D01*
X193600500Y-83920943D01*
X193600500Y-75230943D01*
X193598226Y-75222454D01*
X193559577Y-75078215D01*
X193529606Y-75026305D01*
X193480520Y-74941284D01*
X193368716Y-74829480D01*
X193368715Y-74829479D01*
X193364385Y-74825149D01*
X193364374Y-74825139D01*
X192861314Y-74322079D01*
X192827829Y-74260756D01*
X192829730Y-74200460D01*
X192835115Y-74181536D01*
X192852906Y-73989531D01*
X192878692Y-73924596D01*
X192935492Y-73883908D01*
X193005273Y-73880388D01*
X193064057Y-73913292D01*
X196917024Y-77766260D01*
X200763181Y-81612417D01*
X200796666Y-81673740D01*
X200799500Y-81700098D01*
X200799500Y-83747870D01*
X200799501Y-83747876D01*
X200805908Y-83807483D01*
X200856202Y-83942328D01*
X200856206Y-83942335D01*
X200942452Y-84057544D01*
X200942455Y-84057547D01*
X201057664Y-84143793D01*
X201057671Y-84143797D01*
X201192517Y-84194091D01*
X201192516Y-84194091D01*
X201199444Y-84194835D01*
X201252127Y-84200500D01*
X203747872Y-84200499D01*
X203807483Y-84194091D01*
X203942331Y-84143796D01*
X204057546Y-84057546D01*
X204143796Y-83942331D01*
X204194091Y-83807483D01*
X204200500Y-83747873D01*
X204200499Y-81252128D01*
X204194091Y-81192517D01*
X204185193Y-81168661D01*
X204143797Y-81057671D01*
X204143793Y-81057664D01*
X204057547Y-80942455D01*
X204057544Y-80942452D01*
X203942335Y-80856206D01*
X203942328Y-80856202D01*
X203807482Y-80805908D01*
X203807483Y-80805908D01*
X203747883Y-80799501D01*
X203747881Y-80799500D01*
X203747873Y-80799500D01*
X203747865Y-80799500D01*
X201700098Y-80799500D01*
X201633059Y-80779815D01*
X201612417Y-80763181D01*
X193034808Y-72185573D01*
X193001323Y-72124250D01*
X193006307Y-72054558D01*
X193034806Y-72010213D01*
X197408202Y-67636819D01*
X197469525Y-67603334D01*
X197495883Y-67600500D01*
X198775501Y-67600500D01*
X198842540Y-67620185D01*
X198888295Y-67672989D01*
X198899501Y-67724500D01*
X198899501Y-68147876D01*
X198905908Y-68207483D01*
X198956202Y-68342328D01*
X198956206Y-68342335D01*
X199042452Y-68457544D01*
X199042455Y-68457547D01*
X199157664Y-68543793D01*
X199157671Y-68543797D01*
X199292517Y-68594091D01*
X199292516Y-68594091D01*
X199299444Y-68594835D01*
X199352127Y-68600500D01*
X201647872Y-68600499D01*
X201707483Y-68594091D01*
X201842331Y-68543796D01*
X201957546Y-68457546D01*
X202043796Y-68342331D01*
X202094091Y-68207483D01*
X202100500Y-68147873D01*
X202100499Y-65852128D01*
X202094091Y-65792517D01*
X202060017Y-65701161D01*
X202043797Y-65657671D01*
X202043793Y-65657664D01*
X201957547Y-65542455D01*
X201957544Y-65542452D01*
X201842335Y-65456206D01*
X201842328Y-65456202D01*
X201707482Y-65405908D01*
X201707483Y-65405908D01*
X201647883Y-65399501D01*
X201647881Y-65399500D01*
X201647873Y-65399500D01*
X201647864Y-65399500D01*
X199352129Y-65399500D01*
X199352123Y-65399501D01*
X199292516Y-65405908D01*
X199157671Y-65456202D01*
X199157664Y-65456206D01*
X199042455Y-65542452D01*
X199042452Y-65542455D01*
X198956206Y-65657664D01*
X198956202Y-65657671D01*
X198905908Y-65792517D01*
X198901267Y-65835690D01*
X198899501Y-65852123D01*
X198899500Y-65852135D01*
X198899500Y-66275500D01*
X198879815Y-66342539D01*
X198827011Y-66388294D01*
X198775500Y-66399500D01*
X192624499Y-66399500D01*
X192557460Y-66379815D01*
X192511705Y-66327011D01*
X192500499Y-66275500D01*
X192500499Y-65504500D01*
X192520184Y-65437461D01*
X192572988Y-65391706D01*
X192624499Y-65380500D01*
X198053331Y-65380500D01*
X198053347Y-65380501D01*
X198060943Y-65380501D01*
X198219054Y-65380501D01*
X198219057Y-65380501D01*
X198371785Y-65339577D01*
X198421904Y-65310639D01*
X198508716Y-65260520D01*
X198620520Y-65148716D01*
X198620520Y-65148714D01*
X198630728Y-65138507D01*
X198630730Y-65138504D01*
X199632416Y-64136818D01*
X199693739Y-64103333D01*
X199720097Y-64100499D01*
X201567871Y-64100499D01*
X201567872Y-64100499D01*
X201627483Y-64094091D01*
X201762331Y-64043796D01*
X201877546Y-63957546D01*
X201963796Y-63842331D01*
X202014091Y-63707483D01*
X202020500Y-63647873D01*
X202020500Y-63224500D01*
X202040185Y-63157461D01*
X202092989Y-63111706D01*
X202144500Y-63100500D01*
X205993331Y-63100500D01*
X205993347Y-63100501D01*
X206000943Y-63100501D01*
X206159054Y-63100501D01*
X206159057Y-63100501D01*
X206311785Y-63059577D01*
X206361904Y-63030639D01*
X206448716Y-62980520D01*
X206560520Y-62868716D01*
X206560520Y-62868714D01*
X206570728Y-62858507D01*
X206570730Y-62858504D01*
X207179235Y-62249999D01*
X208994728Y-62249999D01*
X208994729Y-62250000D01*
X210089252Y-62250000D01*
X210067482Y-62287708D01*
X210030000Y-62427591D01*
X210030000Y-62572409D01*
X210067482Y-62712292D01*
X210089252Y-62750000D01*
X208994728Y-62750000D01*
X208994811Y-62751067D01*
X209053603Y-62995956D01*
X209149980Y-63228631D01*
X209281568Y-63443362D01*
X209281571Y-63443367D01*
X209445130Y-63634869D01*
X209636632Y-63798428D01*
X209636637Y-63798431D01*
X209851368Y-63930019D01*
X210084043Y-64026396D01*
X210328932Y-64085188D01*
X210329999Y-64085271D01*
X210330000Y-64085271D01*
X210330000Y-62990747D01*
X210367708Y-63012518D01*
X210507591Y-63050000D01*
X210652409Y-63050000D01*
X210792292Y-63012518D01*
X210830000Y-62990747D01*
X210830000Y-64085271D01*
X210831067Y-64085188D01*
X211075956Y-64026396D01*
X211308631Y-63930019D01*
X211523362Y-63798431D01*
X211523367Y-63798428D01*
X211714869Y-63634869D01*
X211878428Y-63443367D01*
X211878431Y-63443362D01*
X212010019Y-63228631D01*
X212106396Y-62995956D01*
X212165188Y-62751067D01*
X212165272Y-62750000D01*
X211070748Y-62750000D01*
X211092518Y-62712292D01*
X211130000Y-62572409D01*
X211130000Y-62427591D01*
X211092518Y-62287708D01*
X211070748Y-62250000D01*
X212165271Y-62250000D01*
X212165271Y-62249999D01*
X212165188Y-62248932D01*
X212106396Y-62004043D01*
X212010019Y-61771368D01*
X211878431Y-61556637D01*
X211878428Y-61556632D01*
X211714869Y-61365130D01*
X211523367Y-61201571D01*
X211523362Y-61201568D01*
X211308631Y-61069980D01*
X211075956Y-60973603D01*
X210831064Y-60914811D01*
X210830000Y-60914726D01*
X210830000Y-62009252D01*
X210792292Y-61987482D01*
X210652409Y-61950000D01*
X210507591Y-61950000D01*
X210367708Y-61987482D01*
X210330000Y-62009252D01*
X210330000Y-60914726D01*
X210328935Y-60914811D01*
X210084043Y-60973603D01*
X209851368Y-61069980D01*
X209636637Y-61201568D01*
X209636632Y-61201571D01*
X209445130Y-61365130D01*
X209281571Y-61556632D01*
X209281568Y-61556637D01*
X209149980Y-61771368D01*
X209053603Y-62004043D01*
X208994811Y-62248932D01*
X208994728Y-62249999D01*
X207179235Y-62249999D01*
X209896944Y-59532289D01*
X209958265Y-59498806D01*
X210027957Y-59503790D01*
X210032031Y-59505393D01*
X210083889Y-59526873D01*
X210328852Y-59585683D01*
X210580000Y-59605449D01*
X210831148Y-59585683D01*
X211076111Y-59526873D01*
X211308859Y-59430466D01*
X211523659Y-59298836D01*
X211715224Y-59135224D01*
X211878836Y-58943659D01*
X212010466Y-58728859D01*
X212106873Y-58496111D01*
X212165683Y-58251148D01*
X212185449Y-58000000D01*
X212165683Y-57748852D01*
X212106873Y-57503889D01*
X212010466Y-57271141D01*
X212010466Y-57271140D01*
X211878839Y-57056346D01*
X211878838Y-57056343D01*
X211817944Y-56985046D01*
X211715224Y-56864776D01*
X211588571Y-56756604D01*
X211523656Y-56701161D01*
X211523653Y-56701160D01*
X211308859Y-56569533D01*
X211076110Y-56473126D01*
X210831151Y-56414317D01*
X210580000Y-56394551D01*
X210328848Y-56414317D01*
X210083889Y-56473126D01*
X209851140Y-56569533D01*
X209636346Y-56701160D01*
X209636343Y-56701161D01*
X209444776Y-56864776D01*
X209281161Y-57056343D01*
X209281160Y-57056346D01*
X209149533Y-57271140D01*
X209053126Y-57503889D01*
X208994317Y-57748848D01*
X208974551Y-58000000D01*
X208994317Y-58251151D01*
X209053127Y-58496112D01*
X209053127Y-58496114D01*
X209074587Y-58547923D01*
X209082056Y-58617393D01*
X209050780Y-58679872D01*
X209047707Y-58683056D01*
X205867584Y-61863181D01*
X205806261Y-61896666D01*
X205779903Y-61899500D01*
X202144499Y-61899500D01*
X202077460Y-61879815D01*
X202031705Y-61827011D01*
X202020499Y-61775500D01*
X202020499Y-61352129D01*
X202020498Y-61352123D01*
X202020497Y-61352116D01*
X202014091Y-61292517D01*
X202008794Y-61278316D01*
X201963797Y-61157671D01*
X201963793Y-61157664D01*
X201877547Y-61042455D01*
X201877544Y-61042452D01*
X201762335Y-60956206D01*
X201762328Y-60956202D01*
X201627482Y-60905908D01*
X201627483Y-60905908D01*
X201567883Y-60899501D01*
X201567881Y-60899500D01*
X201567873Y-60899500D01*
X201567864Y-60899500D01*
X199272129Y-60899500D01*
X199272123Y-60899501D01*
X199212516Y-60905908D01*
X199077671Y-60956202D01*
X199077664Y-60956206D01*
X198962455Y-61042452D01*
X198962452Y-61042455D01*
X198876206Y-61157664D01*
X198876202Y-61157671D01*
X198825908Y-61292517D01*
X198819501Y-61352116D01*
X198819501Y-61352123D01*
X198819500Y-61352135D01*
X198819500Y-63199902D01*
X198799815Y-63266941D01*
X198783181Y-63287583D01*
X197927584Y-64143181D01*
X197866261Y-64176666D01*
X197839903Y-64179500D01*
X185806669Y-64179500D01*
X185806653Y-64179499D01*
X185799057Y-64179499D01*
X185640943Y-64179499D01*
X185533587Y-64208265D01*
X185488210Y-64220424D01*
X185488209Y-64220425D01*
X185438096Y-64249359D01*
X185438095Y-64249360D01*
X185394689Y-64274420D01*
X185351285Y-64299479D01*
X185351282Y-64299481D01*
X185239478Y-64411286D01*
X179490626Y-70160137D01*
X179429303Y-70193622D01*
X179359611Y-70188638D01*
X179343517Y-70181288D01*
X179333163Y-70175634D01*
X179333162Y-70175633D01*
X179333161Y-70175633D01*
X179065046Y-70075631D01*
X179065043Y-70075630D01*
X179065037Y-70075628D01*
X178785433Y-70014804D01*
X178500001Y-69994390D01*
X178499999Y-69994390D01*
X178214566Y-70014804D01*
X177934962Y-70075628D01*
X177666833Y-70175635D01*
X177415690Y-70312770D01*
X177415682Y-70312775D01*
X177186612Y-70484254D01*
X177186594Y-70484270D01*
X176984270Y-70686594D01*
X176984254Y-70686612D01*
X176812775Y-70915682D01*
X176812770Y-70915690D01*
X176675635Y-71166833D01*
X176575628Y-71434962D01*
X176514804Y-71714566D01*
X176494390Y-71999998D01*
X173600500Y-71999998D01*
X173600500Y-66919998D01*
X176494390Y-66919998D01*
X176494390Y-66920001D01*
X176514804Y-67205433D01*
X176575628Y-67485037D01*
X176575630Y-67485043D01*
X176575631Y-67485046D01*
X176648298Y-67679872D01*
X176675635Y-67753166D01*
X176812770Y-68004309D01*
X176812775Y-68004317D01*
X176984254Y-68233387D01*
X176984270Y-68233405D01*
X177186594Y-68435729D01*
X177186612Y-68435745D01*
X177415682Y-68607224D01*
X177415690Y-68607229D01*
X177666833Y-68744364D01*
X177666832Y-68744364D01*
X177666836Y-68744365D01*
X177666839Y-68744367D01*
X177934954Y-68844369D01*
X177934960Y-68844370D01*
X177934962Y-68844371D01*
X178214566Y-68905195D01*
X178214568Y-68905195D01*
X178214572Y-68905196D01*
X178468220Y-68923337D01*
X178499999Y-68925610D01*
X178500000Y-68925610D01*
X178500001Y-68925610D01*
X178528595Y-68923564D01*
X178785428Y-68905196D01*
X179065046Y-68844369D01*
X179333161Y-68744367D01*
X179584315Y-68607226D01*
X179813395Y-68435739D01*
X180015739Y-68233395D01*
X180187226Y-68004315D01*
X180324367Y-67753161D01*
X180424369Y-67485046D01*
X180485196Y-67205428D01*
X180505610Y-66920000D01*
X180485196Y-66634572D01*
X180434059Y-66399500D01*
X180424371Y-66354962D01*
X180424370Y-66354960D01*
X180424369Y-66354954D01*
X180324367Y-66086839D01*
X180307716Y-66056346D01*
X180187229Y-65835690D01*
X180187224Y-65835682D01*
X180015745Y-65606612D01*
X180015729Y-65606594D01*
X179813405Y-65404270D01*
X179813387Y-65404254D01*
X179584317Y-65232775D01*
X179584309Y-65232770D01*
X179333166Y-65095635D01*
X179333167Y-65095635D01*
X179225915Y-65055632D01*
X179065046Y-64995631D01*
X179065043Y-64995630D01*
X179065037Y-64995628D01*
X178785433Y-64934804D01*
X178500001Y-64914390D01*
X178499999Y-64914390D01*
X178214566Y-64934804D01*
X177934962Y-64995628D01*
X177666833Y-65095635D01*
X177415690Y-65232770D01*
X177415682Y-65232775D01*
X177186612Y-65404254D01*
X177186594Y-65404270D01*
X176984270Y-65606594D01*
X176984254Y-65606612D01*
X176812775Y-65835682D01*
X176812770Y-65835690D01*
X176675635Y-66086833D01*
X176575628Y-66354962D01*
X176514804Y-66634566D01*
X176494390Y-66919998D01*
X173600500Y-66919998D01*
X173600500Y-61499998D01*
X188494891Y-61499998D01*
X188494891Y-61500001D01*
X188515300Y-61785362D01*
X188576109Y-62064895D01*
X188676091Y-62332958D01*
X188813191Y-62584038D01*
X188813196Y-62584046D01*
X188919882Y-62726562D01*
X188919883Y-62726563D01*
X189814768Y-61831678D01*
X189826497Y-61859995D01*
X189909670Y-61984472D01*
X190015528Y-62090330D01*
X190140005Y-62173503D01*
X190168320Y-62185231D01*
X189273435Y-63080115D01*
X189273436Y-63080116D01*
X189415953Y-63186803D01*
X189415961Y-63186808D01*
X189667042Y-63323908D01*
X189667041Y-63323908D01*
X189935104Y-63423890D01*
X190214637Y-63484699D01*
X190499999Y-63505109D01*
X190500001Y-63505109D01*
X190785362Y-63484699D01*
X191064895Y-63423890D01*
X191332958Y-63323908D01*
X191584038Y-63186808D01*
X191584039Y-63186807D01*
X191726563Y-63080115D01*
X190831679Y-62185231D01*
X190859995Y-62173503D01*
X190984472Y-62090330D01*
X191090330Y-61984472D01*
X191173503Y-61859995D01*
X191185231Y-61831679D01*
X192080115Y-62726563D01*
X192186807Y-62584039D01*
X192186808Y-62584038D01*
X192323908Y-62332958D01*
X192423890Y-62064895D01*
X192484699Y-61785362D01*
X192505109Y-61500001D01*
X192505109Y-61499998D01*
X192484699Y-61214637D01*
X192423890Y-60935104D01*
X192323908Y-60667041D01*
X192186808Y-60415961D01*
X192186803Y-60415953D01*
X192080116Y-60273436D01*
X192080115Y-60273435D01*
X191185231Y-61168320D01*
X191173503Y-61140005D01*
X191090330Y-61015528D01*
X190984472Y-60909670D01*
X190859995Y-60826497D01*
X190831678Y-60814767D01*
X191726563Y-59919883D01*
X191726562Y-59919882D01*
X191584046Y-59813196D01*
X191584038Y-59813191D01*
X191332957Y-59676091D01*
X191332958Y-59676091D01*
X191064895Y-59576109D01*
X190785362Y-59515300D01*
X190500001Y-59494891D01*
X190499999Y-59494891D01*
X190214637Y-59515300D01*
X189935104Y-59576109D01*
X189667041Y-59676091D01*
X189415961Y-59813191D01*
X189415953Y-59813196D01*
X189273435Y-59919882D01*
X190168321Y-60814767D01*
X190140005Y-60826497D01*
X190015528Y-60909670D01*
X189909670Y-61015528D01*
X189826497Y-61140005D01*
X189814768Y-61168321D01*
X188919882Y-60273435D01*
X188813196Y-60415953D01*
X188813191Y-60415961D01*
X188676091Y-60667041D01*
X188576109Y-60935104D01*
X188515300Y-61214637D01*
X188494891Y-61499998D01*
X173600500Y-61499998D01*
X173600500Y-56419998D01*
X188494390Y-56419998D01*
X188494390Y-56420001D01*
X188514804Y-56705433D01*
X188575628Y-56985037D01*
X188575630Y-56985043D01*
X188575631Y-56985046D01*
X188602225Y-57056346D01*
X188675635Y-57253166D01*
X188812770Y-57504309D01*
X188812775Y-57504317D01*
X188984254Y-57733387D01*
X188984270Y-57733405D01*
X189186594Y-57935729D01*
X189186612Y-57935745D01*
X189415682Y-58107224D01*
X189415690Y-58107229D01*
X189666833Y-58244364D01*
X189666832Y-58244364D01*
X189666836Y-58244365D01*
X189666839Y-58244367D01*
X189934954Y-58344369D01*
X189934960Y-58344370D01*
X189934962Y-58344371D01*
X190214566Y-58405195D01*
X190214568Y-58405195D01*
X190214572Y-58405196D01*
X190468220Y-58423337D01*
X190499999Y-58425610D01*
X190500000Y-58425610D01*
X190500001Y-58425610D01*
X190528595Y-58423564D01*
X190785428Y-58405196D01*
X191065046Y-58344369D01*
X191333161Y-58244367D01*
X191584315Y-58107226D01*
X191813395Y-57935739D01*
X192015739Y-57733395D01*
X192187226Y-57504315D01*
X192324367Y-57253161D01*
X192424369Y-56985046D01*
X192453282Y-56852135D01*
X198819500Y-56852135D01*
X198819500Y-59147870D01*
X198819501Y-59147876D01*
X198825908Y-59207483D01*
X198876202Y-59342328D01*
X198876206Y-59342335D01*
X198962452Y-59457544D01*
X198962455Y-59457547D01*
X199077664Y-59543793D01*
X199077671Y-59543797D01*
X199212517Y-59594091D01*
X199212516Y-59594091D01*
X199219444Y-59594835D01*
X199272127Y-59600500D01*
X201567872Y-59600499D01*
X201627483Y-59594091D01*
X201762331Y-59543796D01*
X201877546Y-59457546D01*
X201963796Y-59342331D01*
X202014091Y-59207483D01*
X202020500Y-59147873D01*
X202020499Y-56852128D01*
X202014091Y-56792517D01*
X201980017Y-56701161D01*
X201963797Y-56657671D01*
X201963793Y-56657664D01*
X201877547Y-56542455D01*
X201877544Y-56542452D01*
X201762335Y-56456206D01*
X201762328Y-56456202D01*
X201627482Y-56405908D01*
X201627483Y-56405908D01*
X201567883Y-56399501D01*
X201567881Y-56399500D01*
X201567873Y-56399500D01*
X201567864Y-56399500D01*
X199272129Y-56399500D01*
X199272123Y-56399501D01*
X199212516Y-56405908D01*
X199077671Y-56456202D01*
X199077664Y-56456206D01*
X198962455Y-56542452D01*
X198962452Y-56542455D01*
X198876206Y-56657664D01*
X198876202Y-56657671D01*
X198825908Y-56792517D01*
X198819501Y-56852116D01*
X198819501Y-56852123D01*
X198819500Y-56852135D01*
X192453282Y-56852135D01*
X192453283Y-56852129D01*
X192485195Y-56705433D01*
X192485195Y-56705432D01*
X192485196Y-56705428D01*
X192505610Y-56420000D01*
X192485196Y-56134572D01*
X192424369Y-55854954D01*
X192324367Y-55586839D01*
X192187226Y-55335685D01*
X192187224Y-55335682D01*
X192015745Y-55106612D01*
X192015729Y-55106594D01*
X191813405Y-54904270D01*
X191813387Y-54904254D01*
X191584317Y-54732775D01*
X191584309Y-54732770D01*
X191333166Y-54595635D01*
X191333167Y-54595635D01*
X191225915Y-54555632D01*
X191065046Y-54495631D01*
X191065043Y-54495630D01*
X191065037Y-54495628D01*
X190785433Y-54434804D01*
X190500001Y-54414390D01*
X190499999Y-54414390D01*
X190214566Y-54434804D01*
X189934962Y-54495628D01*
X189666833Y-54595635D01*
X189415690Y-54732770D01*
X189415682Y-54732775D01*
X189186612Y-54904254D01*
X189186594Y-54904270D01*
X188984270Y-55106594D01*
X188984254Y-55106612D01*
X188812775Y-55335682D01*
X188812770Y-55335690D01*
X188675635Y-55586833D01*
X188575628Y-55854962D01*
X188514804Y-56134566D01*
X188494390Y-56419998D01*
X173600500Y-56419998D01*
X173600500Y-51827873D01*
X173620185Y-51760834D01*
X173672989Y-51715079D01*
X173742147Y-51705135D01*
X173788926Y-51721924D01*
X174031375Y-51869361D01*
X174031382Y-51869365D01*
X174218237Y-51950526D01*
X174294942Y-51983844D01*
X174571642Y-52061371D01*
X174821920Y-52095771D01*
X174856321Y-52100500D01*
X174856322Y-52100500D01*
X175143679Y-52100500D01*
X175174370Y-52096281D01*
X175428358Y-52061371D01*
X175705058Y-51983844D01*
X175818015Y-51934779D01*
X175968617Y-51869365D01*
X175968620Y-51869363D01*
X175968625Y-51869361D01*
X176214147Y-51720055D01*
X176437053Y-51538708D01*
X176633189Y-51328698D01*
X176798901Y-51093936D01*
X176931104Y-50838797D01*
X177027334Y-50568032D01*
X177085798Y-50286686D01*
X177105408Y-50000000D01*
X177085798Y-49713314D01*
X177027334Y-49431968D01*
X176931105Y-49161206D01*
X176931106Y-49161206D01*
X176798900Y-48906062D01*
X176798896Y-48906056D01*
X176721216Y-48796008D01*
X176698637Y-48729887D01*
X176715391Y-48662056D01*
X176766157Y-48614050D01*
X176822520Y-48600500D01*
X211177480Y-48600500D01*
X211244519Y-48620185D01*
G37*
%TD.AperFunction*%
%TD*%
M02*
